<?xml version="1.0" encoding="UTF-8"?>
<svg id="Livello_1" data-name="Livello 1" xmlns="http://www.w3.org/2000/svg" viewBox="0 0 116.56 138.46">
  <defs>
    <style>
      .cls-1 {
        fill: #e19e68;
      }
    </style>
  </defs>
  <path class="cls-1" d="M100.68,76.69s-5.93.44-9.86-3.79c1.19,8.5-6.39,21.71-12.47,26.89-4.2,3.57-9.59,17.22-11.03,20.22-.23.47.42.68.72.17,1.52-3.09,2.9-6.03,4.41-8.9,1.78-3.4,4.3-6.16,8.06-7.32,4.02-1.24,5.37-.16,6.49,3.24,2.89,8.8-11.62,22.81-12.85,24.06,1.07,0,5.49-.04,7.09.17,2.45.32,4.39,1.39,4.86,4.15.2,1.23-1.31,2.46-3.07,2.47-3.71.01-7.43.04-11.13.01-1.08-.01-2.16-.03-3.23-.05-6.85-.14-6.3-4-4.28-6.25-2.24.93-4.14,1.22-6.12.67-1.97.55-3.87.26-6.12-.67,2.02,2.24,2.57,6.11-4.28,6.25-1.07.02-2.15.04-3.23.05h0s-11.13-.01-11.13-.01c-1.77-.01-3.28-1.24-3.07-2.47.47-2.76,2.42-3.83,4.86-4.15,1.6-.22,6.02-.17,7.09-.17-1.23-1.25-15.74-15.26-12.85-24.06,1.12-3.4,2.47-4.48,6.49-3.24,3.75,1.16,6.28,3.93,8.06,7.32,1.51,2.87,2.89,5.81,4.41,8.9.3.51.95.3.72-.17-1.45-3.01-6.84-16.65-11.03-20.22-6.08-5.18-13.66-18.39-12.47-26.89-3.93,4.23-9.89,3.8-9.86,3.79,4.42-2.48,8.99-12.98,9.32-13.88.71-1.93,3.84-3.83,5.73-3.27,6.15,1.84,11.56,16.92,11.74,17.41.16.46.76.25.63-.1-.12-.37-4.45-15.81-9.98-17.54C13.54,53.12,6.42,22.58,28.37,14.67c-4.11-2.28-6.3-13.33-4.88-14.67.42,1.31,5.89,10.67,10.37,11.87,6.14,1.64,13.95,4.1,16.49,10.5,4.38,11-2.86,20.99-10.44,20.55-5.63-.32-5.88-5.15-5.7-6.34.3-1.84.08-6.83-3.02-4.69-5.93,4.1-2.69,12.04,2.36,15.23,2.89,1.83,15.16.71,21.62,13.18,3.11,5.99,2.23,25.31,1.28,30.73-1.39,7.9,1.2,12.15,1.82,13.73.63-1.59,3.21-5.84,1.82-13.73-.95-5.43-1.82-24.74,1.28-30.73,6.46-12.47,18.73-11.35,21.62-13.18,5.05-3.19,8.29-11.13,2.36-15.23-3.1-2.14-3.32,2.85-3.02,4.69.18,1.2-.06,6.02-5.7,6.34-7.58.44-14.82-9.55-10.44-20.55,2.55-6.4,10.36-8.86,16.49-10.5,4.48-1.2,9.95-10.56,10.37-11.87,1.42,1.34-.77,12.39-4.88,14.67,21.95,7.91,14.83,38.45-4.94,44.65-5.52,1.73-9.86,17.17-9.98,17.54-.13.35.46.56.63.1.17-.49,5.59-15.56,11.74-17.41,1.89-.56,5.02,1.34,5.73,3.27.33.91,4.9,11.4,9.32,13.88Z"/>
</svg>