<?xml version="1.0" encoding="UTF-8"?>
<svg id="Livello_1" data-name="Livello 1" xmlns="http://www.w3.org/2000/svg" viewBox="0 0 146.66 138.83">
  <defs>
    <style>
      .cls-1 {
        fill: #83a0d2;
      }
    </style>
  </defs>
  <path class="cls-1" d="M78.45,23.12c14.24,7.33,29.36,25.43,36.58,29.2,12.98,6.78,24.57-2.37,21.37,5.56-8.94,9.7-29.92,1.93-36.55-6.04-15.85-19.07-19.72-9.95-20.73-6.57-1.01,3.38,4.52,9.41,8.31,18.45,4.84,11.53,2.14,71.28.89,73.02-1.61,2.25-21.05,3.79-24.35-1.49-3.79-6.08-10.14-64.79-8.98-72.09,1.17-7.29,5.85-13.48,4.77-17.47-5.13-10.4-11.16-2.93-22.28,10.6-12.9,12.99-21.12,9.56-25.44,8.8s-1.94-6.09,1.31-6.1c12.53-.8,15.23-3.63,25.31-18.51,10.08-14.88,18.69-17.11,18.69-17.11,1.9-1.24,2.55-2.27,2.07-4.32-.19-.83-9.04-18.97,8.4-19.03,15.37-.06,9.71,17.47,9.28,18.96-.76,2.6,1.34,4.14,1.34,4.14Z"/>
</svg>