<?xml version="1.0" encoding="UTF-8"?>
<svg id="Livello_1" data-name="Livello 1" xmlns="http://www.w3.org/2000/svg" viewBox="0 0 137.25 138.85">
  <defs>
    <style>
      .cls-1 {
        fill: #ef802c;
      }
    </style>
  </defs>
  <path class="cls-1" d="M39.03,128.39l-.11-.39c-.14-.5.42-.91.85-.62,1.08.73,2.14,1.12,3.28,0,.34-.34.4-.9.11-1.27-1.32-1.68-6.96-2.82-8.3-2.75-1.64.08-2.51.95-3.72,1.6-.31.17-.68-.07-.68-.42v-.23c0-.21-.13-.4-.33-.45l-4.65-1.31c-.46-.13-.49-.45-.1-.72l2.82-2.31c1.02-.8,1.32-1.03,1.89-1.65,2.6-2.82,6.16-8.05,5.64-11.02s-5.5-3.81-7.74-3.73c-1.21.04-2.66.08-5,1.14-1.75.79-5.95,4.35-5.14,2.3,1.63-4.14,12.44-7.51,17.84-2.74,9.33,8.26,16.34,15.43,28.31,19.31,2.51.81,5.26.98,6.98,1.64.58.22.61,1.25-.1,1.41-.91.19-3.92-.45-4.95-.61-2.98-.46-6.38-2.89-6.02,1.81.02.21.15.39.34.47l.39.17c.35.15.73-.09.78-.46.02-.18.07-.36.13-.52.24-.65,1.23-.3,1.06.36l-.25,1c-.09.36.19.71.56.7l.62-.02c.28,0,.52-.23.54-.51,0,0-.22-1.8.21-2.13.89-.68,1.11,1.15.86,1.96-.11.36.16.72.53.72l29.63.32c.41,0,.64,0,.93-.28l.23-.31c.38-.75.07-.13.31-.61,2.59-4.98-2.94-5.72-7.78-5.9-1.59-.06-2.57.23-3.99.38-.38.04-.55-.11-.62-.34-.16-.53.2-1.07.72-1.25,2.19-.78,4.61.06,6.5-.19,2.83-.38,6.72-4.15,9.8-5.52,6.6-2.94,7.66-2.01,11.05,3.74.33.57,1.14.98,1.41,1.65.16.38.2.78.23,1.17.06.71,1.1.68,1.12-.03.02-.75.23-1.7.84-1.23,1,.78-.7,3.41-.63,4.02.09.78,1.5,1.57,1.78,0,.06-.32.12-3.14.76-3.24,1.44-.22.73,4.28.7,4.71-.06.71-1.02,2.02-.82,3.26.04.26.27.44.53.46l6.08.32c.43.02.73-.43.53-.81-.72-1.41-2.6-4.08-2.77-4.73-.19-.72.31-.89.72-.53.76.66,3.05,5.82,4.68,6.26.36.1.7-.22.67-.59-.14-1.69-1.43-2.95-2.33-4.22-.79-1.11-1.7-2.18-2.47-3.34-1.49-2.22-3.77-3.69-5.29-5.79-4.38-6.04-3.44-10.32-13.02-9.51-1.32.11-7.81,1.25-8.73,1.97-1.32,1.05-2.77,5.54-3.32,3.37-.98-3.88,2.2-6.02,2.7-9.34.2-1.28,1.28-2.78,1.47-4.26.34-2.55-.66-4.12-.73-6.36-.02-.5-.3-.95-.75-1.17-4.71-2.26-9.29-4.6-11.95-9.19-1.1-1.89-2.65-4.52-2.2-4.84.64-.46.54-.1.99.72,4.04,7.36,11.2,13.57,20.77,11.76,3.2-.6,4.8-2.98,8.73-2.87,4.67.13,10.64,3.75,14.33-1.38,4.29-5.97-.31-10.09-5.74-12.34-9.5-3.94-14.07-2.62-22.08-11.17-.99-1.05-3.98-4.77-3.62-3.26,1,4.23,7.35,9.98,13.11,12.11,4.05,1.5,12.17,4.3,15.02,6.33,5.08,3.6-.28,10.96-4.81,7.92-.57-.38-.62-1.03-1.08-1.3-.32-.19-.25-.65.08-.83.26-.14.86-.77.22-1.1-.42-.22-1.74.65-1.9.2-.18-.51,1.8-1.21,1.8-1.21.29-.19.28-.64-.04-.79-.47-.22-.97,0-1.46.28-.31.17-.68-.06-.68-.41h0c0-.3.29-.6.66-.36.83.53,2.06.17,2.6-.65,1.49-2.27-4.59.19-3.7-.97.51-.66,3.26-.98,3.11-1.82-.3-1.65-3.99.65-5.1,1.97-.75.89-1.63,2.74-2.41,2.94s-1.86,0-2.83.23c-3.25.8-2.16.9-5.88.96-1.56.03-2.41,1.18-4.31.23-.73-.37-6.93-5.74-7.61-7.66-.56-1.58-.81-2.78-.52-4.78.13-.87.71.56.91,1.23.33,1.12.37,1.68.79,2.83.66,1.81,5.71,6.53,6.5,7.03.27.17.52.33.82.38.2.03.4-.07.52-.23l1.34-1.88c.58-.82,1-1.74,1.23-2.72v-.05c.08-.28-.12-.55-.4-.57-1.02-.08-4.1-1.14-2.91-1.44,4.62-1.16,5.16.15,6.6-2.99.25-.54.03-1.19-.48-1.49-3.19-1.83-4.73-3.23-8.44-6.94-.68-.68-2.26-.68-3.43-.98-1.52-.38-2.31-.67-3.34-1.18-1.52-.76-3.32-.8-4.83-.03-8.29,4.16-12.84,10.66-8.58,20.64.36.84,1.48,1.98,1.64,2.51.19.67-.38,1.37.13,2.59s3.14,1.54,2.39,2.39c-.39.44-2.12-.97-2.12-.97-.23-.11-.51-.04-.67.16-1.45,1.7-1.14,4.02-2.96,5.57-6.77,5.76-18.24-4.09-11.33-8.16,1.29-.76,2.62-1.07,2.18-1.55-1.04-1.13-4.11-.27-5.46,1.22-3.72,4.1,1.4,9.09,4.31,11.01.89.59-.4.88-1.17.59-2.36-.89-2.68-3.91-5.86-2.09-1.7.97,1.28,1.32,2.41,1.77.29.11.42.45.29.74-.3.66-1.01,1.4-.27,1.86,2.04,1.26,4.76-1.44,7.02-1.43.38,0,.64.37.52.73-.38,1.15-1.25,1.93-1.78,3.22-.13.32.17.66.5.56,1.32-.4,2.14-1.75,3.76-1.28.8.23,1.03.69,1.47.63,1.97-.28,4.11-5.17,5.32-4.54,1.1.57-2.77,4.11-2.77,4.11-.05.07-.11.13-.19.17l-1.8,1.52c-.29.24-.69.28-1.02.1-.22-.12-.41-.28-.48-.41-.79-1.47-3.38.31-4.77.9-.31.13-.7,0-.83-.3-.56-1.24.13-2.12.52-3.08.19-.47-.3-.93-.76-.72-2.1.99-4.15,2.25-6.33-.26-.16-.18-.17-.51-.04-.71l.26-.4c.23-.35.1-.63-.25-.68-3.21-.48-3.58-3.03-.36-3.83.48-.12.54-.41.12-.68-2.42-1.6-9.89-4.68-10.55-4.91-14.67-5.05-28.28-2.87-38.41,9.39-4.83,5.84-4.21,8.56-6.34,14.78-.59,1.72-1.11,3.29-1.89,4.91-.28.58.48,1.11.92.63,1.13-1.23,2.16-2.24,2.64-3.6.63-1.81.72-3.21,1.6-4.7.78-1.32,1.37-.91.77,1.34-.29,1.08-1.01,1.8-1.08,2.99-.12,2.01,1.21,3.3,1.76,3.96,3.88,4.66,5.95,5.29,11.16,4.15,4.79-1.05,9.47-4.33,11.91-8.72.51-.92,1.99-3.67,1.84-2.37-.9,7.41-10.72,13.49-18.81,12.63-.2-.02-.4.06-.51.22-1.11,1.63-1.49,3.93-.15,5.48.1.12.26.19.42.19h25.94c.37,0,.64-.36.54-.72Z"/>
  <path class="cls-1" d="M75.32,14.8c-.35.24-.43.74-.16,1.07.82,1,3,2.46,2.94,3.53s-4.19-3.28-4.19-3.28c-.09-.07-.2-.1-.3-.08l-2.04.31c-.19.03-.26.26-.11.39,1.5,1.3,3.01,2.62,4.45,4.04.64.63,1.15,1.89-.04,1.18-.68-.41-7.48-7.27-10.46-3.19-3.35,4.58,3.81,13.24,9.35,14.63,1.27.32,3.16.6,4.31.11,1.05-.45.71-2.01-.43-1.99-5.34.12-11.12-4.6-10.89-9.87.05-1.06,1.13-1.78,2.13-1.43,2.98,1.07,4.62,4.11,5.02,7.29.17,1.3,1.29,2.61,2.57,2.89.37.08.67.11.91.1.62-.02,1.11-.51,1.18-1.12,1.04-9.61,6.78-17.61,16.34-11.39,3.19,2.07,5.83,6.45,7.2,9.99.71,1.84.84,3.89,1.14,4.92.09.32.33.58.63.72l16.87,7.78c.45.21.97-.11.98-.6.18-7.88-2.12-15.82-7.58-21.76-1.13-1.23-2.32-2.67-3.13-3.41-.59-.54-.45-1.24.17-.92,7.52,3.93,15,15.73,18.7,25.74.13.36.51.56.88.47l.52-.12c.39-.09.66-.46.62-.86-3.04-27.38-35.11-40.81-57.57-25.14Z"/>
  <path class="cls-1" d="M93.67,41.82c-1.08,1.04-.49-1.63-.54-1.93-.35-2.02-2.18-4.48-4.39-4.62-.38-.03-.68.29-.7.67-.03.9-.73,1.75-.78,2.31-.1,1.04,2.32,2.97,1.06,4.71-1.08-1.16-.43-2.35-1.75-3.78-.95-1.02-2.33-1.41-3.58-1.96-.4-.17-.85.06-.94.48-.63,3.16-.1,4.05,2.07,7.74.91,1.56-2.6-1.52-3.44-1.9-5.73-2.63-10.42,8.43-4.63,11.71.46.26.9-.11,1-.63.13-.68.06-1.12-.37-1.74s-1.18-1.1-1.34-1.71c-.05-.19.38-.7.95-.2.49.43,1.06,2.54,1.71,1.92.35-.33,0-3.79.39-4.58.64-1.28,1.21,1.26.95,2.28-.15.58.61.98.99.51.68-.83,1.77-3.67,2.26-2.42.35.91-1.25,1.66-1.65,3.13-.44,1.61-.22,2.6,1.09,3.62.07.05.17,0,.17-.09-.1-1.58-.23-5.34.78-4.36.73.7-.51,1.75-.37,2.83.06.45,1.16,2.11,1.06,1.53-.7-3.78,3.17-8.38,6.4-7.05.73.3,1.05,1.45.59,1.17-2.28-1.44-6.21,2.35-6.34,5.18-.03.76.3.81.56.16.77-1.9,4.28-5.58,6-4.3.39.3.29.92-.16,1.12-1.02.45-2.54.64-3.04.95-1.1.68-2.85,2.75-2.22,4.12.89,1.96,5.84,3.83,8.69,3.91.52.01.53-.34.39-.85-.23-.83-.56-1.31-1.11-1.74-.44-.34-.32-1.02.21-1.18h.03c.24-.08.41-.3.41-.56v-.13c-.09-.51-.1-.78-.41-.78,0,0-.42-.05-.43-.05-.75.1-2.62-.18-.42-1.16.97-.43.68-.36,2.42-.89,1.09-.34.28,1.14-.5,1.37-.65.19-.17.9.42,1.31.19.14.46-.05.59-.24,0,0,.41-1.1.61-.91.97.97-.47,3.58,1.16,4.67.29.2.7.15.93-.11,2.53-2.84,3.02-5.76,2.66-9.35-.08-.8-.78-1.41-1.59-1.38-1.26.05-2.49.36-3.6.98-.57.32-.94-.1-.61-.67.45-.77,1.17-1.16,2.28-1.27s4.92.87,3.78,0c-2.82-2.14-7.09-.71-8.13.84-.48.72-.02-1.03.78-1.76,1.74-1.59,3.65-1.22,6.87-.54.42.09.81-.23.81-.65h0c0-.37-.3-.67-.67-.67-1.14.03-2.17-.13-3.32-.46-.67-.19-2.39-.91-1.36-1.11,3.05-.58,5.6-.53,7.62.97.34.25.84.15,1.02-.24,2.14-4.54-1.29-8.37-6.21-6.96-.28.08-.47.34-.47.63,0,1.62-.56,3.35-2.35,3.68-.04-1,1.06-1.35,1.36-2.27.9-2.77-1.23-3.19-3.11-4.28-.34-.2-.8-.06-.95.3-.82,2.05,1.8,5.28.4,6.62Z"/>
  <path class="cls-1" d="M130.66,43.01c.7.53,3.1-.74,3.44-.76.67-.04-.29.62-.84.86-1.26.54-4.13,2.27-2.61,2.46.47.06,2.97-2.3,3.45-1.41.34.62-1.2.41-1.95,1.3-.22.26-.32.54-.35.85-.02.22.21.37.41.27,1.21-.57,3.42-.27,3.42.25,0,.99-2.82-.54-3.06.96-.15.92.38.59.98.57,1.14-.05,1.36-.29,1.65,1.1.03.14-.04.28-.16.34l-.32.16c-.14.07-.3.02-.38-.11l-.28-.47c-.09-.15-.27-.2-.43-.13l-.81.41c-.29.15-.65.14-.93-.04-1.19-.78-.53-2.48-.86-2.76-.27-.23-.86.01-1.32-.41-1.11-1,.15-1.87.22-3.02.01-.22-.23-.36-.43-.27-2.14.95-2.11,3.55-1.21,5.47.41.88,1.66,1.77,1.9,2.69,1.15,4.34-5.23,10.62-7.34,13.88-2.24,3.46,1.98,4.31.4,5.56-.98.77-1.12-1.31-2.05-2.14-1.03-.93-5.51-2.66-6.5-2.96-1.54-.46-3.15-.19-4.67-1.26-1.24-.87-2.54-2.52-3.64-3.42-.81-.66-3.48-2.31-4.39-2.53-.73-.18-1.68.72-2.25,1.55-.31.45-.28,1.06.09,1.46,1.61,1.75,6.65,5.28,7.88,5.82,4.75,2.09,10.1,2.56,14.79,5.08,1.68.9,2.83,1.8,4.13,2.54.53.3,1.19.24,1.63-.17,3.88-3.58,6.03-8.27,6.54-13.61.38-4.01-.41-4.83,1.1-8.83,1.69-4.45,1.84-6.92-.53-10.63-.17-.26-.31-.59-1.02-.59-1.38,0-4.62,1.27-3.71,1.95Z"/>
  <path class="cls-1" d="M114.24,74.33l-7.87-2.73c-.39-.17-.81-.21-.97.16l-.48.87c-.27.58-.23.85.03,1.11,1.42,1.45,6.08,3.34,7.07,3.44.74.07,1.37-.7,1.87-1.15,1.01-.93,1.07-1.39.35-1.69Z"/>
</svg>