<?xml version="1.0" encoding="UTF-8"?>
<svg id="Livello_1" data-name="Livello 1" xmlns="http://www.w3.org/2000/svg" viewBox="0 0 104.49 138.83">
  <defs>
    <style>
      .cls-1 {
        fill: #a71f22;
      }
    </style>
  </defs>
  <path class="cls-1" d="M38.75,81.7c.23.1.37.16.51.22.4.18.75.4,1.06.72.18.19.37.35.58.52.48.38,1.03.61,1.64.69.55.07,1.11.15,1.66.23.06,0,.13.02.19.03.93.14,1.51.9,1.08,1.96-.11.28-.26.55-.42.8-.5.76-1.08,1.43-1.88,1.91-.73.44-1.31,1.04-1.74,1.78-.25.43-.44.89-.43,1.4,0,.76.44,1.3,1.19,1.46.5.11.98.02,1.46-.1.63-.16,1.22-.43,1.77-.76,2.17-1.31,3.83-3.1,4.97-5.36.2-.4.34-.83.51-1.25.06-.14.1-.29.18-.41.12-.18.37-.23.58-.15.2.07.33.22.33.43,0,.17-.02.35-.08.5-.2.52-.38,1.05-.63,1.55-1.19,2.28-2.88,4.1-5.05,5.48-.84.53-1.73.96-2.72,1.12-.46.08-.94.08-1.43.12,0,0-.05.03-.07.07-.25.62-.74.92-1.36,1.05-.31.07-.62.17-.92.28-.43.16-.71.46-.82.92-.1.41-.11.8,0,1.21.14.53.42.99.8,1.38.18.18.41.34.65.4.74.2,1.47.16,2.06-.38.9-.83,1.79-1.67,2.42-2.74.12-.2.26-.4.41-.57.72-.82,1.63-1.23,2.71-.95,1.1.28,1.8,1.04,2.08,2.16.12.48.16.98.06,1.47-.07.33-.03.64.1.95.22.51.71.7,1.22.48.12-.05.22-.14.33-.2.13-.07.27-.14.41-.18.21-.05.45.06.56.23.11.18.11.44-.03.61-.11.13-.25.24-.38.35-.87.75-1.61,1.61-2.17,2.61-.33.58-.6,1.19-.67,1.87-.02.21-.02.43.02.64.08.42.32.63.74.67.17.02.34,0,.51-.03.43-.07.82-.24,1.2-.44.79-.42,1.46-.97,2.06-1.63,1.15-1.29,2.1-2.72,2.91-4.24.76-1.43,1.39-2.9,1.78-4.48.15-.61.26-1.22.26-1.84,0-.13,0-.26.03-.38.05-.24.27-.42.5-.44.25-.01.51.17.55.45.04.25.04.51.01.77-.06.71-.18,1.41-.38,2.09-.78,2.63-1.85,5.13-3.43,7.38-.22.32-.45.63-.62.97-.31.6-.15.85.52.81.36-.02.72-.1,1.07-.2,1.31-.39,2.49-1.04,3.58-1.86.24-.18.48-.37.72-.55.09-.06.18-.13.27-.17.22-.1.48-.03.64.17.16.2.17.46-.01.65-.23.23-.48.43-.74.62-.8.57-1.43,1.29-1.98,2.1-.34.5-.63,1.03-.79,1.61-.08.29-.15.59-.16.88-.04.77.28,1.17,1.09,1.36.15-.12.31-.26.48-.38.61-.44,1.22-.88,1.83-1.31.12-.08.26-.15.4-.19.22-.06.42.05.55.25.12.19.12.43-.05.59-.13.13-.3.24-.46.34-1.02.65-1.96,1.4-2.79,2.27-.52.54-1,1.13-1.36,1.79-.2.36-.37.73-.43,1.14-.1.69.16,1.08.85,1.19.45.07.9.05,1.35-.04.98-.18,1.89-.56,2.78-1,.15-.08.3-.17.46-.23.31-.11.58,0,.71.27.11.24.04.49-.21.67-.05.04-.11.07-.17.1-2.26,1.27-4.14,2.98-5.82,4.93-.63.74-1.21,1.51-1.64,2.38-.2.4-.35.83-.5,1.25-.05.14-.07.29-.07.44-.01.44.16.66.59.67.34,0,.69-.03,1.02-.1.78-.18,1.49-.54,2.19-.92.15-.08.3-.18.45-.24.26-.11.53-.01.67.22.14.23.1.51-.14.69-.17.13-.37.22-.55.34-.12.08-.26.17-.34.29-.68,1.14-.92,2.35-.53,3.64.08.26.22.52.39.74.44.59,1.09.76,1.78.5.39-.15.71-.39,1-.69.45-.48.75-1.04.94-1.67.06-.18.09-.38.17-.55.11-.26.37-.38.63-.31.23.06.39.27.38.53,0,.15-.02.3-.08.44-.17.44-.35.88-.53,1.31-.07.16-.15.3-.23.45.25.56.62,1,1.03,1.41.79.78,1.73,1.34,2.75,1.76,1.38.57,2.82.88,4.32.94,1.69.07,3.34-.11,4.95-.66,1.11-.39,2.13-.92,3.01-1.7.63-.57,1.13-1.23,1.42-2.04.28-.8.29-1.6.02-2.4-.38-1.12-1.11-1.97-2.06-2.65-.03-.02-.08-.02-.15-.04-.14.18-.28.36-.42.55-.51.67-1.08,1.28-1.74,1.81-.57.46-1.2.83-1.89,1.08-1.71.59-3.31.15-4.47-1.23-.56-.67-.92-1.44-1.19-2.27-.3-.95-.43-1.93-.48-2.92-.16-3.1.53-6.01,1.91-8.77.24-.48.55-.92.82-1.38.23-.39.48-.77.66-1.17.88-1.93,1.45-3.95,1.69-6.05.24-2.13.13-4.25-.49-6.32-.42-1.41-1.06-2.72-2-3.86-.59-.72-1.28-1.33-2.06-1.84-.21-.14-.42-.19-.67-.15-1.84.3-3.64.06-5.4-.52-.45-.15-.88-.35-1.3-.56-.27-.13-.52-.31-.74-.51-.94-.84-.76-1.89.4-2.39.31-.13.65-.21.99-.28.74-.16,1.5-.16,2.25-.1.84.06,1.66.19,2.47.41.27.07.53.17.85.28.51-.06.93-.38,1.29-.79.45-.5.76-1.09.98-1.73.41-1.21.5-2.43.23-3.68-.02-.1-.05-.21-.08-.31-.03-.1-.07-.2-.1-.27-.06-.05-.09-.09-.12-.1-1.24-.55-2.39-1.26-3.47-2.08-.27-.21-.57-.39-.83-.61-.31-.26-.6-.55-.89-.83-.06-.06-.12-.13-.16-.2-.2-.35-.02-.76.36-.87.35-.1.62,0,.86.27.59.69,1.27,1.28,1.99,1.82.55.42,1.15.75,1.81.97.37.12.72.28,1.09.4.39.12.8.17,1.19-.08.04-.24-.11-.41-.22-.58-.29-.47-.6-.94-.89-1.42-.13-.22-.26-.45-.36-.68-.17-.43-.11-.68.27-.95.22-.16.49-.28.75-.35.63-.15,1.26-.26,1.89-.37,1.22-.22,2.35-.65,3.35-1.41.83-.63,1.25-1.45,1.32-2.47.08-1.21-.15-2.35-.79-3.4-.23-.39-.48-.76-.72-1.14-.38-.6-.72-1.22-.87-1.93-.09-.41-.31-.75-.59-1.06-.6-.66-1.3-1.18-2.08-1.61-1.29-.72-2.67-1.17-4.12-1.42-.57-.1-1.15-.14-1.73-.21-.06,0-.12,0-.18.01-.14.17,0,.29.05.42.3.77.33,1.54.05,2.33-.61,1.71-2.47,2.6-4.18,1.98-1.68-.61-2.56-2.46-1.97-4.15.13-.38.33-.65.75-.8,1.02-.35,2.06-.61,3.12-.75.38-.05.77-.09,1.15-.11,2.52-.12,4.91.41,7.16,1.54.59.3,1.13.69,1.69,1.05.14.09.27.21.44.34.07-.19.13-.34.19-.49.22-.6.51-1.12,1.09-1.46.46-.27.73-.72.94-1.2.26-.6.39-1.23.4-1.88.04-1.43-.18-2.82-.74-4.15-.41-.98-.99-1.85-1.68-2.66-.28-.33-.5-.69-.68-1.08-.79-1.7-1.31-3.49-1.65-5.34-.52-2.83-.61-5.68-.36-8.54.51-5.66,2.1-10.99,4.88-15.95,1.35-2.41,2.97-4.63,4.95-6.56,1.22-1.19,2.56-2.23,4.05-3.06,1.23-.68,2.53-1.18,3.91-1.43,2.82-.5,5.37.11,7.64,1.86,1.12.86,2.04,1.91,2.78,3.11.43.69.78,1.43,1.17,2.15.09.17.17.34.29.59.08-.12.13-.19.18-.26.92-1.36,1.54-2.83,1.64-4.48.12-1.92-.49-3.59-1.75-5.03-1.09-1.24-2.46-2.07-3.99-2.64-1.13-.42-2.3-.68-3.51-.79-3.98-.38-7.68.5-11.13,2.48-1.54.88-2.9,2-4.03,3.37-.55.67-1.02,1.38-1.41,2.15-.12.24-.16.46-.09.74.12.43.2.88.27,1.32.04.23.05.47.04.7,0,.22-.19.4-.4.44-.23.05-.49-.07-.58-.3-.05-.12-.06-.25-.08-.38-.16-.75-.3-1.51-.5-2.26-.17-.67-.45-1.3-.82-1.88-.21-.33-.44-.63-.76-.87-.5-.37-.99-.36-1.47.03-.32.26-.56.59-.76.95-.38.68-.62,1.41-.81,2.16-.35,1.45-.44,2.93-.39,4.41,0,.21.02.43,0,.64,0,.21-.14.36-.33.44-.19.07-.4.06-.54-.1-.17-.19-.31-.41-.43-.63-.17-.3-.3-.62-.48-.91-.25-.38-.51-.74-.81-1.08-.18-.2-.42-.37-.66-.5-.45-.25-.89-.18-1.22.21-.21.24-.38.52-.51.81-.25.53-.36,1.1-.43,1.68-.22,1.6-.05,3.17.32,4.73.25,1.07.62,2.1,1.19,3.05.15.26.21.51.14.8-.14.59-.66.77-1.12.37-.14-.12-.26-.29-.38-.44-.82-1-1.71-1.93-2.73-2.72-.63-.49-1.3-.91-2.04-1.22-.5-.21-1.02-.33-1.57-.31-.66.03-1.14.34-1.44.92-.23.45-.32.93-.35,1.43-.04.89.1,1.76.32,2.61.35,1.34.88,2.6,1.54,3.81.15.28.36.54.56.79,1.04,1.28,2.09,2.56,3.14,3.84.11.13.22.26.31.41.13.24.05.53-.17.68-.2.14-.46.13-.65-.05-.14-.13-.26-.28-.39-.43-1.04-1.26-2.07-2.52-3.1-3.79-.26-.33-.56-.58-.93-.77-.46-.24-.92-.47-1.43-.58-.29-.06-.59-.1-.89-.09-.53.01-.89.29-1.06.79-.07.2-.11.42-.13.63-.06.63.02,1.25.22,1.84.22.65.44,1.31.74,1.92,1.17,2.39,2.79,4.42,4.87,6.08.67.54,1.39,1,2.19,1.34.46.2.84.52,1.18.87.74.77,1.2,1.67,1.33,2.73.05.44,0,.86-.17,1.26-.31.77-.9,1.18-1.73,1.23-.53.03-1.02-.1-1.49-.35-1.18-.63-1.94-1.6-2.36-2.85-.07-.2-.12-.41-.17-.6-.84-.31-2.94-.37-4.02-.12-.13.18,0,.33.07.47.45.89.78,1.81.98,2.79.32,1.57.24,3.12-.32,4.63-.07.18-.15.36-.25.52-.1.17-.33.22-.52.15-.18-.07-.3-.26-.26-.46.01-.08.04-.17.08-.24.76-1.79.72-3.6.13-5.42-.68-2.09-1.88-3.85-3.62-5.21-1.03-.81-2.16-1.48-3.37-2-.76-.32-1.56-.48-2.37-.56-.13-.01-.26-.01-.39,0-.24.02-.41.15-.48.37-.08.25-.14.5-.19.75-.68,3.45.2,6.46,2.56,9.05.32.35.66.68.98,1.02.29.31.3.54.06.85-.27.35-.53.43-.89.22-.24-.14-.46-.32-.68-.48-.65-.48-1.39-.66-2.19-.57-.06,0-.12.03-.19.05-.02,0-.03.03-.09.07,0,.11-.04.26-.03.4.17,1.79.66,3.49,1.47,5.11.34.69.82,1.26,1.42,1.72.56.42.98.96,1.27,1.6.18.39.31.8.3,1.24,0,.96-.65,1.68-1.6,1.79-.54.06-1.07,0-1.58-.2-1.42-.56-2.49-1.5-3.07-2.94-.03-.08-.07-.16-.12-.28-.11.1-.22.16-.29.26-.41.62-.66,1.3-.67,2.05,0,1.29.32,2.51.8,3.69.43,1.06,1,2.04,1.7,2.95.09.12.19.23.26.36.12.21.06.44-.12.58-.18.14-.4.12-.58-.06-.09-.09-.17-.19-.25-.29-1.24-1.63-2.12-3.43-2.54-5.44-.04-.19-.07-.38-.09-.57-.04-.42-.19-.79-.46-1.11-1.07-1.31-2.38-2.29-3.99-2.83-.55-.19-1.12-.28-1.71-.19-.78.12-1.16.57-1.17,1.36,0,.46.13.89.3,1.31.32.76.76,1.45,1.34,2.03.36.37.75.71,1.12,1.06.24.23.28.45.11.67-.18.24-.48.29-.73.09-.19-.14-.36-.3-.53-.47-.45-.43-.88-.88-1.33-1.32-1.78-1.75-3.79-3.16-6.1-4.12-.6-.25-1.21-.45-1.85-.54-.32-.04-.65-.06-.96-.02-.52.07-.72.33-.64.84.06.33.17.67.33.97.41.78.92,1.5,1.55,2.13.26.26.53.5.79.76.11.1.22.21.31.32.16.21.14.46-.02.65-.18.21-.46.25-.7.1-.11-.07-.2-.16-.3-.25-.26-.25-.54-.49-.78-.77-.59-.68-1.31-1.17-2.1-1.58-1.65-.88-3.41-1.39-5.29-1.46-.63-.02-1.25.01-1.85.19-.26.08-.53.18-.77.32-.61.36-.76.88-.5,1.55.15.36.37.68.63.96.41.45.88.82,1.38,1.15.14.09.3.18.43.29.25.2.27.56.06.8-.26.29-.52.35-.92.14-.96-.49-1.96-.87-3-1.14-1.21-.32-2.44-.5-3.69-.56-.84-.04-1.68.03-2.49.23-.35.09-.7.23-1.01.41-.48.28-.55.67-.22,1.14.16.23.35.44.57.61.32.25.67.46,1.01.69.48.32.98.62,1.45.96.2.15.39.35.52.56.2.32.08.69-.26.88-.2.11-.44.06-.58-.1-.04-.05-.08-.1-.11-.16-.2-.36-.52-.56-.88-.73-.43-.2-.9-.32-1.37-.36-2.95-.25-5.47.59-7.39,2.94-.27.34-.3.49-.04.79,1.31,1.57,2.89,2.76,4.9,3.28,1.24.32,2.47.28,3.65-.27.25-.12.48-.27.72-.42.11-.07.21-.16.32-.22.21-.12.44-.1.6.04.18.16.25.35.17.58-.06.16-.14.31-.21.47-.16.38-.27.77-.27,1.18,0,.67.31,1.15.88,1.46.36.2.76.29,1.17.31.76.05,1.5-.08,2.22-.33,1.5-.53,2.75-1.39,3.7-2.67.06-.09.12-.18.19-.26.17-.18.39-.23.58-.15.23.09.38.3.35.56-.02.19-.08.38-.16.55-.09.19-.21.37-.32.56-.27.44-.52.9-.64,1.4-.07.29-.13.59-.14.89-.01.76.34,1.2,1.06,1.41.49.14.98.13,1.47.06.88-.13,1.71-.42,2.51-.8,1.39-.66,2.64-1.52,3.72-2.61.14-.14.27-.28.42-.4.23-.18.51-.17.7,0,.22.21.24.49.04.75-.09.12-.2.22-.31.33-.65.66-1.37,1.23-2.13,1.77-.29.21-.55.48-.81.73-.12.12-.21.27-.29.42-.26.51-.18.9.3,1.23.25.17.52.3.8.4.91.29,1.85.42,2.8.36,3.31-.21,6.49-.99,9.54-2.26.95-.4,1.87-.86,2.73-1.44.45-.3.87-.63,1.21-1.06.05-.07.11-.13.17-.19.16-.14.37-.15.53-.03.16.12.24.33.16.51-.06.13-.15.26-.25.37-.33.4-.72.74-1.15,1.02-.58.37-1.18.7-1.77,1.05-.16.1-.34.18-.6.32Z"/>
  <path class="cls-1" d="M65.19,61.63c-.91.08-1.75.26-2.57.53-.25.08-.39.23-.47.47-.34,1.15.3,2.38,1.45,2.71,1.31.38,2.43-.4,2.73-1.5.17-.63.07-1.23-.29-1.78-.22-.33-.47-.57-.85-.43Z"/>
</svg>