<?xml version="1.0" encoding="UTF-8"?>
<svg id="Livello_1" data-name="Livello 1" xmlns="http://www.w3.org/2000/svg" viewBox="0 0 116.56 144.84">
  <defs>
    <style>
      .cls-1 {
        fill: #4ab0ac;
      }
    </style>
  </defs>
  <path class="cls-1" d="M83.89,24.43c1.84-.87,3.67-1.78,5.48-2.71,1.38-.7,2.88-1.32,4.04-2.35,1.61-1.4,2.7-3.35,3.42-5.33.79-2.19,1.19-4.54,1.19-6.87.01-2.19-.31-4.43-1.21-6.44-.04-.08-.07-.17-.12-.25h-9.03c2.69,4.49.85,10.81-1.59,13.13-1.99,1.9-12.68,8.79-15.63,10.82-3.25,2.24-4.39,5.32-3.18,9.14.83,2.64,1.07,5.25.65,7.93-.2,1.28-.4,2.62-1.78,3.29-1.52.73-2.94.28-3.64-1.3-.78-1.74-.97-3.56-.5-5.48.68-2.84,1.27-5.72,1.77-8.59.22-1.27.25-2.61.13-3.89-.32-3.58-2.26-5.38-5.61-5.81-3.35.44-5.29,2.23-5.61,5.81-.12,1.28-.09,2.62.13,3.89.5,2.88,1.08,5.75,1.77,8.59.47,1.92.28,3.74-.5,5.48-.71,1.58-2.12,2.03-3.64,1.3-1.38-.67-1.58-2-1.78-3.29-.42-2.69-.18-5.29.65-7.93,1.2-3.82.07-6.9-3.18-9.14-2.95-2.03-13.64-8.92-15.63-10.82-2.44-2.32-4.28-8.64-1.59-13.13h-9.03c-.05.08-.08.17-.12.25-.91,2-1.23,4.24-1.21,6.44,0,2.33.4,4.68,1.19,6.87.72,1.98,1.8,3.93,3.42,5.33,1.17,1.03,2.66,1.65,4.04,2.35,1.82.93,3.64,1.84,5.48,2.71,1.08.52,2.19.99,3.27,1.53.14.07.22.22.17.39-.19.48-1.92-.41-2.26-.54-.91-.34-1.8-.71-2.69-1.1-1.78-.77-3.51-1.61-5.21-2.55-1.3-.71-3.95-2.33-4.01-2.37-.06,2.18-.14,3.37-.13,4.96.07,9.16.18,26.59.18,26.59,0,0-.28,9.62-1.11,14.37-1.08,6.21-1.73,19.74-.27,20.63.15.11.39.14.55.06,1.51-.72,3.41-7.85,4.61-7.86,1.04-.02,2.59,5.01,4.84,4.35,1.06-.31-2.27-15.54-4.99-21.38-1.43-3.06-1.7-10.16-1.7-10.16,0,0-.72-21.36-1.01-26.49.85,1.45,1.61,2.75,2.39,4.07.09.15,10.36,2.63,13.37,2.94.94.09.91.88,0,.86-3.83-.11-12.27-2.61-12.61-2.53,1.86,3.11,3.72,6.57,5.54,9.59,1.32.21,8.83.37,9.88.4.51.05.54.66-.04.66-4.51.12-5.67.15-9.64-.07.41,3.28,1.21,9.65,1.21,9.65,1.33-.55,6.42-2.44,9.17-4.3.59-.22.9.13.28.53-1.84,1.2-7.98,3.98-9.24,4.59l3.12,7.45c2.7-1.86,5.01-3.91,6.68-5.68.38-.4,1.07.11.65.64-1.4,1.73-6.29,5.55-6.88,5.78,1.99,3.1,5.06,3.41,7.89.64,1.14-1.12,2.33-2.18,3.65-3.41.06.52.09,10.08-.08,14.39-.08,2.03.28,3.82,1.32,5.58,1.3,2.2,2.03,4.61,2,7.2-.01.77-.81.8-.85-.04-.14-2.98-1.38-5.76-2.78-8.25-.72-1.3-1.92-1.74-3.31-1.63-1.4.12-2.13,1.11-2.44,2.38-.72,3.02-1.25,6.04-.44,9.17.85,3.23,2.46,6,4.54,8.56,1.24,1.51,1.66,4.68,3.93,4.75-2.06-.07-3.68-.05-5.06,0-1.83.06-3.34,2.71-3.55,3.72-11.94,1.99-18.54,7.99-20.18,18.33-1.31,8.3,3.28,17.13,10.97,21.22,6.81,3.61,17.59,4.04,25.87-4.96,8.29,9.01,19.06,8.57,25.87,4.96,7.7-4.09,12.28-12.92,10.97-21.22-1.64-10.34-8.24-16.34-20.18-18.33-.21-1.01-1.72-3.67-3.55-3.72-1.38-.05-2.99-.07-5.06,0,2.26-.07,2.69-3.24,3.93-4.75,2.07-2.56,3.69-5.33,4.54-8.56.81-3.14.28-6.15-.44-9.17-.31-1.27-1.04-2.26-2.44-2.38-1.39-.12-2.59.33-3.31,1.63-1.4,2.49-2.64,5.27-2.78,8.25-.04.84-.84.8-.85.04-.02-2.59.71-5,2-7.2,1.04-1.76,1.4-3.55,1.32-5.58-.18-4.31-.14-13.87-.08-14.39,1.32,1.23,2.51,2.29,3.65,3.41,2.83,2.77,5.89,2.46,7.89-.64-.59-.22-5.48-4.04-6.88-5.78-.42-.53.27-1.04.65-.64,1.67,1.77,3.98,3.82,6.68,5.68l3.12-7.45c-1.26-.6-7.4-3.38-9.24-4.59-.61-.4-.31-.75.28-.53,2.75,1.86,7.84,3.75,9.17,4.3,0,0,.8-6.38,1.21-9.65-3.97.22-5.13.19-9.64.07-.58,0-.54-.61-.04-.66,1.05-.04,8.56-.19,9.88-.4,1.82-3.03,3.68-6.48,5.54-9.59-.34-.07-8.78,2.43-12.61,2.53-.91.02-.94-.77,0-.86,3.01-.31,13.27-2.78,13.37-2.94.78-1.32,1.54-2.62,2.39-4.07-.29,5.13-1.01,26.49-1.01,26.49,0,0-.27,7.1-1.7,10.16-2.71,5.85-6.05,21.08-4.99,21.38,2.25.66,3.81-4.37,4.84-4.35,1.2.01,3.1,7.14,4.61,7.86.17.08.4.05.55-.06,1.46-.88.81-14.42-.27-20.63-.83-4.75-1.11-14.37-1.11-14.37,0,0,.11-17.43.18-26.59.01-1.59-.07-2.78-.13-4.96-.06.04-2.71,1.66-4.01,2.37-1.7.93-3.43,1.78-5.21,2.55-.88.39-1.78.75-2.69,1.1-.34.13-2.07,1.03-2.26.54-.06-.17.02-.32.16-.39,1.07-.54,2.18-1.01,3.27-1.53ZM58.28,110.03c-1.71-1.51-3.42-3.02-5.1-4.49.73-.27,2.79-.42,5.1-.45,2.31.02,4.37.18,5.1.45-1.69,1.47-3.39,2.98-5.1,4.49Z"/>
</svg>