<?xml version="1.0" encoding="UTF-8"?>
<svg id="Livello_1" data-name="Livello 1" xmlns="http://www.w3.org/2000/svg" viewBox="0 0 120.41 144.84">
  <defs>
    <style>
      .cls-1 {
        fill: #aa2d75;
      }
    </style>
  </defs>
  <path class="cls-1" d="M59.43,105.38c-.49.29-.95.48-1.51.34-.27-.07-.5.13-.54.36-.04.23.11.51.35.58.23.06.49.12.72.08.44-.08.89-.18,1.31-.36,2.09-.92,4.02-2.12,5.8-3.54.83-.66,1.45-1.5,2.02-2.4.37-.59.74-1.2,1.19-1.73,1.16-1.38,2.75-1.78,4.45-1.18.16.06.32.13.52.22.25-.23.48-.48.75-.69.32-.24.71-.27,1.1-.28.35,0,.7,0,1.07,0,1.28-1.09,2.74-.99,4.24-.51.28.09.62.2.6.69-.23.08-.48.19-.74.26-.79.24-1.45.67-1.96,1.33-.25.32-.38.7-.22,1.08.3.69.36,1.34-.18,1.93.56.59,1.33.83,1.63,1.64-.17.08-.31.2-.46.21-.28.03-.56,0-.84-.01-.56-.01-1.12-.03-1.68-.03-.44,0-.83.11-1.13.45-.05.05-.11.09-.16.14-1.5,1.32-3.22,2.22-5.15,2.7-.57.14-1.03.4-1.45.79-1.59,1.43-3.26,2.76-5.04,3.93-.53.35-1.09.62-1.69.83-1.42.49-2.88.88-4.36,1.14-1.54.27-3.07.15-4.55-.36-1.28-.44-2.21-1.31-2.84-2.5-.53-1.01-.78-2.09-.86-3.22-.12-1.81.19-3.55.93-5.21.34-.77.67-1.54,1.01-2.3.3-.7.33-1.42.16-2.16-.23-.99-.77-1.74-1.73-2.09-.65-.24-1.34-.44-2.02-.52-3.29-.42-6.56-.29-9.78.58-1.11.3-2.24.54-3.37.76-1.11.22-2.23.19-3.35.09-.31-.03-.62-.09-.89-.31.22-.7.45-1.4.65-2.1.43-1.52.78-3.05.72-4.64-.02-.52-.14-1.04-.27-1.54-.06-.22-.24-.43-.43-.57-.1-.08-.36-.06-.47.01-.12.08-.24.33-.2.43.72,1.5.37,3.03.08,4.53-.34,1.79-.95,3.51-1.73,5.16-.27.57-.6,1.1-1.04,1.56-.39.4-.74.84-1.1,1.27-.76.93-1.34,1.96-1.67,3.12-.58,2.08-1.74,3.8-3.34,5.23-.65.58-1.3,1.16-1.95,1.75-1.13,1.03-1.94,2.28-2.47,3.72-.71,1.9-1.35,3.82-1.64,5.84-.24,1.67-.39,3.33-.12,5.01.13.8.32,1.58.74,2.28.32.52.72.96,1.37,1.04.13.02.35-.11.41-.24.06-.12.03-.34-.04-.48-.05-.11-.21-.17-.33-.25-.43-.28-.7-.66-.84-1.25.2.04.37.04.51.1.59.24,1.17.19,1.74-.05.51-.22,1.01-.47,1.52-.7.45-.2.89-.41,1.35-.57.94-.31,1.86-.26,2.74.23.12.07.25.12.41.2,1.26-.46,2.57-.56,3.89-.23.77.19,1.19.4,1.83.93-.02.2-.17.18-.3.18-1.05-.02-1.99.33-2.88.85-.71.42-1.28.98-1.6,1.75-.36.86-1.05,1.27-1.89,1.51-.37.1-.75.17-1.21.28.14.21.24.37.35.51.24.29.55.55.74.87.3.5.06,1.01-.5,1.12-.34.07-.7.08-1.04.05-.99-.11-1.78.22-2.39,1.01-.06.08-.14.16-.21.24-1.26,1.47-3,1.49-4.39.85-.28-.13-.54-.32-.82-.46-.25-.13-.5-.26-.76-.33-.32-.09-.65.14-.67.48-.01.31.02.63.08.93.08.41.21.81.29,1.22.2,1.02,0,1.94-.7,2.74-.02.03-.04.06-.07.08-.81.73-1.02,1.62-.72,2.67.09.33.08.7.05,1.04-.08.81-.7,1.21-1.5,1.01-.5-.13-.9-.41-1.17-.83-.26-.41-.51-.84-.65-1.3-.2-.66-.59-1.1-1.21-1.36-1.54-.64-2.08-1.87-2.03-3.44.03-.92.25-1.8.58-2.65.3-.78.6-1.57.98-2.32.66-1.33.85-2.71.74-4.18-.09-1.11-.09-2.24-.13-3.35-.04-1.3.09-2.59.24-3.87.07-.62.15-1.24.23-1.93.25.12.45.24.67.33.19.08.39.16.59.18.18.02.37-.07.4-.26.02-.16,0-.35-.08-.48-.06-.11-.22-.17-.34-.23-.68-.35-1.13-.93-1.46-1.6-.62-1.25-.81-2.59-.75-3.97.02-.54.21-1.03.48-1.48.39-.66.8-1.31,1.21-1.96.45-.71.94-1.39,1.38-2.11,1.23-2.01,1.73-4.2,1.33-6.54-.34-1.99.04-3.82,1.05-5.54.43-.72.86-1.44,1.3-2.15.85-1.35,1.42-2.79,1.57-4.4.06-.66.27-1.3.43-1.94.39-1.56.78-3.12,1.2-4.67.15-.57.35-1.13.61-1.67.6-1.26,1.25-2.5,1.88-3.75,1.14-2.26,2.56-4.33,4.27-6.21,3.4-3.74,7.1-7.14,11.34-9.93,1.32-.87,2.69-1.63,4.09-2.34,1.66-.83,3.4-1.25,5.25-1.25.21,0,.42,0,.63-.02.31-.03.48-.19.49-.44,0-.25-.17-.45-.45-.48-.31-.02-.63-.03-.94-.02-.69.03-1.39.07-2.07.11-.42-.76-.43-1.08-.08-2.23.32-.17.66-.34,1-.53.18-.1.39-.23.29-.48-.09-.24-.34-.25-.54-.22-.34.05-.69.12-1.01.24-.87.32-1.75.49-2.67.41-.41-.03-.82-.13-1.2-.2-.34-.79-.15-1.52-.02-2.23.05-.29.3-.43.59-.53.86-.3,1.7-.64,2.54-.98.22-.09.44-.21.64-.36.18-.14.22-.35.14-.57-.07-.19-.31-.31-.52-.24-.23.08-.45.2-.67.28-.85.33-1.69.66-2.55.96-.66.24-1.32.19-1.93-.13-.55-.29-1.11-.6-1.61-.97-.77-.56-1.36-1.3-1.93-2.06-.19-.25-.34-.52-.34-.92.3,0,.57-.01.83-.02,1.01,0,2.03.01,3.04-.01.31,0,.62-.11.91-.22.15-.06.3-.2.36-.34.06-.14.05-.36-.03-.48-.08-.11-.32-.23-.43-.18-1.57.62-3.17.32-4.77.16-.34-.04-.67-.17-1.01-.27-.5-.16-.78-.49-.97-1-.93-2.49-2.5-4.51-4.61-6.11-.95-.72-1.99-1.3-3.11-1.73-.89-.34-1.05-.53-1.37-1.54.24-.21.46-.04.67.04,1.57.6,3.17,1.1,4.81,1.48,1.36.32,2.73.59,4.14.57.28,0,.56-.03.83-.08.19-.03.38-.31.31-.48-.06-.14-.2-.26-.33-.36-.07-.05-.2-.04-.31-.04-2.16.04-4.23-.49-6.28-1.06-.54-.15-1.06-.37-1.6-.51-1.31-.35-2.45-1.01-3.47-1.88-.87-.75-1.73-1.53-2.56-2.33-.37-.36-.67-.8-.98-1.23-.12-.16-.17-.38-.24-.57-.02-.05.03-.12.07-.25.21.12.42.22.61.34,2.14,1.32,4.43,2.23,6.91,2.64.83.14,1.66.2,2.5.28.2.02.43.02.62-.06.13-.06.26-.26.27-.4,0-.14-.12-.37-.24-.41-.25-.09-.54-.11-.82-.12-3.51-.2-6.7-1.31-9.57-3.34-1.68-1.19-3.07-2.64-4.11-4.43-.4-.69-.47-.99-.49-1.96.26.16.5.29.71.45,2.01,1.47,4.15,2.72,6.44,3.71.71.3,1.43.56,2.15.83.16.06.35.12.51.08.14-.03.33-.17.37-.3.04-.13-.02-.38-.12-.46-.18-.15-.43-.22-.66-.3-3.09-1.1-5.93-2.66-8.52-4.67-.88-.68-1.73-1.42-2.52-2.21-1.25-1.25-1.91-2.82-2.18-4.56-.03-.17-.02-.35-.01-.52,0-.06.05-.12.08-.19.33-.04.48.25.68.42,3.27,2.86,6.77,5.42,10.49,7.67,1.25.76,2.56,1.44,3.84,2.15.21.12.45.22.68.25.13.01.34-.12.4-.24.06-.12.05-.37-.04-.47-.16-.17-.39-.29-.6-.4-3.59-1.83-6.95-4.04-10.17-6.47-2.12-1.6-4.14-3.33-6.05-5.19-1.2-1.17-1.17-2.53-.85-3.98.11-.49.41-.88,1.07-.95.04.06.1.15.16.24,1.46,2.21,3.32,4.06,5.32,5.76,3.24,2.75,6.79,5.05,10.52,7.06.18.1.37.19.57.25.22.06.41,0,.54-.21.11-.18.08-.43-.11-.56-.26-.18-.53-.33-.81-.48-3.33-1.8-6.5-3.85-9.43-6.25-1.74-1.42-3.37-2.94-4.78-4.7-.72-.9-1.35-1.87-1.83-2.93-.28-.61-.19-1.15.14-1.69.32-.51.77-.8,1.37-.85.53-.04,1.04.04,1.54.24.69.28,1.29.7,1.86,1.16,1.14.93,2.27,1.87,3.42,2.78,3.23,2.54,6.74,4.64,10.47,6.35.46.21.8.47,1.05.95,1.08,2.03,2.58,3.73,4.25,5.3.23.21.44.44.66.67.02.02,0,.07.02.14-.28.09-.58.17-.86.28-.74.31-1.05.86-.97,1.67.06.54.31,1,.6,1.43.65.97,1.51,1.74,2.41,2.46.38.3.77.59,1.13.87.04.34-.23.36-.38.46-.88.55-1.3,1.55-.55,2.73.33.52.77,1,1.24,1.4.58.5,1.25.9,1.87,1.34.14.1.28.2.5.35-.36.11-.62.19-.87.28-1.17.45-1.56,1.39-1.04,2.53.25.55.62,1.02,1.08,1.4.51.42,1.07.78,1.61,1.17.2.14.4.26.69.44-.33.2-.64.25-.9.37-1.29.56-1.53,1.63-.56,2.67.4.43.89.8,1.39,1.1.78.45,1.62.82,2.44,1.22.28.13.57.24.83.34.07.27-.11.34-.23.46-.41.42-.89.8-1.22,1.28-.85,1.22-.53,2.46.76,3.19.65.37,1.37.53,2.1.62.27.03.54.05.8.07.1.25-.07.35-.17.49-.28.4-.62.77-.81,1.21-.52,1.23.06,2.35,1.21,2.67.81.23,1.63.4,2.48.26.44-.07.88-.12,1.38-.19-.03.2-.05.33-.06.46-.05.41-.14.83-.13,1.24.03,1.13.77,1.96,1.87,2.22.67.16,1.33.1,1.97-.09,1.13-.34,2.08-.97,2.86-1.87.11-.13.23-.29.25-.45.02-.15-.04-.37-.15-.45-.11-.08-.36-.1-.48-.03-.2.12-.36.32-.53.5-.68.69-1.46,1.18-2.41,1.42-.45.11-.9.15-1.35.01-.7-.21-1.15-.76-1.09-1.48.08-.97.43-1.85,1.3-2.4.59-.37,1.17-.74,1.84-.98.97-.34,1.61-1.09,2.05-2,.05-.09.11-.21.09-.29-.04-.16-.11-.35-.24-.42-.12-.07-.37-.06-.47.02-.18.15-.29.38-.42.59-.3.48-.69.88-1.19,1.15-.94.51-2,.26-2.58-.63-.2-.31-.36-.69-.43-1.06-.16-.93.02-1.81.54-2.61.28-.43.61-.75,1.18-.75.17,0,.34-.06.51-.1.4-.1.54-.25.53-.53-.01-.3-.23-.43-.72-.39-.28.02-.56.04-.83.09-.91.15-1.81.08-2.72-.07-.63-.1-1.23-.28-1.75-.66-.63-.46-.73-1.02-.24-1.62.24-.29.56-.53.85-.77.23-.19.49-.21.79-.18.62.05,1.25.06,1.88.06.16,0,.35-.07.48-.17.1-.07.19-.25.16-.35-.04-.15-.15-.35-.28-.39-.22-.07-.48-.05-.72-.04-1,.05-1.95-.11-2.86-.53-.58-.27-1.09-.63-1.49-1.13-.89-1.1-.68-2.29.52-3.02.27-.16.56-.27.87-.42.25.15.48.3.71.45.66.4,1.31.81,1.97,1.2.18.1.38.19.58.24.22.05.44-.04.5-.27.04-.14,0-.36-.09-.47-.13-.15-.34-.23-.52-.34-.68-.42-1.38-.82-2.05-1.27-.87-.59-1.68-1.26-2.35-2.08-.4-.48-.78-1-1.06-1.55-.7-1.4-.22-2.3,1.34-2.53.58-.09,1.19-.06,1.77,0,1.04.12,2.07.35,2.99.9.18.11.38.18.58.25.28.09.51,0,.64-.21.12-.21.04-.47-.2-.62-.21-.13-.44-.21-.65-.34-.97-.56-1.95-1.09-2.89-1.7-.52-.34-.98-.79-1.43-1.23-.25-.24-.45-.54-.61-.85-.39-.74-.24-1.33.46-1.81.26-.18.55-.3.82-.46.2-.12.32-.31.23-.53-.06-.14-.21-.26-.34-.36-.08-.06-.2-.05-.3-.06-1.16-.17-2.22-.62-3.21-1.23-2.66-1.64-4.65-3.89-5.97-6.72-.44-.95-.76-1.95-.78-3.03.35-.12.54.13.75.27,2.55,1.62,5.24,2.94,8.19,3.68,1.46.36,2.93.65,4.41.95,1.47.3,2.95.58,4.38,1.05,2,.66,3.76,1.69,5.2,3.24,1.09,1.17,1.92,2.49,2.25,4.08.21,1.01.21,2.01-.15,3.07-1.13.56-2.08,1.31-1.56,2.82-.2.45-.54.76-.83,1.11-.7.83-1.42,1.64-1.97,2.58-.61,1.05-.94,2.18-.85,3.41.15,1.88.99,3.32,2.7,4.2,1.3.66,2.67.79,4.09.59.9-.12,1.79-.33,2.69-.46,1.21-.18,2.42-.35,3.64-.47.66-.06,1.33,0,1.99-.02.64,0,1.05.3,1.31.93-.31.17-.61.33-.91.49-1.44.73-2.8,1.58-4.04,2.62-1,.84-1.88,1.78-2.55,2.9-.45.75-.79,1.55-.96,2.42-.26,1.33-.06,2.58.57,3.76.47.87.79,1.79,1.01,2.75.02.1.06.2.07.31.12,2.07.02,2.22-1.6,2.96-1.99.91-4.05,1.02-6.13.3-.56-.19-1.13-.37-1.67-.61-1.38-.63-2.78-.62-4.2-.2-1.58.47-3.03,1.23-4.61,1.85.09.21.12.39.22.51.98,1.32,1.94,2.65,2.97,3.94,1.59,1.99,3.68,3.19,6.17,3.69,1,.2,2,.31,3.02.19.24-.03.48-.03.75.06-.29.1-.58.22-.87.29-2.42.61-4.87.93-7.37.82-.21,0-.42-.03-.63-.01-.5.05-.73.48-.47.9.13.21.28.41.43.59,2.66,3.18,5.98,5.34,10,6.38.85.22,1.72.34,2.6.3.88-.04,1.73-.21,2.51-.66.12-.07.25-.13.37-.19.03-.01.07,0,.16.02.44,1.14.83,2.33,1.59,3.35.46.62.92,1.23,1.39,1.84.06.08.16.14.25.19.06.03.13.04.19.06.07-.01.15,0,.2-.04,1.46-.97,3.13-1.55,4.68-2.36,1.05-.55,2.11-1.1,3.16-1.64.09-.05.19-.07.29-.11.03.07.1.14.09.19-.23,1.02-.46,2.05-1.13,2.9-.11.14-.21.28-.28.44-.1.21.08.53.31.58.1.02.21.04.31.03,1.5-.11,3.01-.09,4.49-.38,1.91-.38,3.71-1,5.33-2.1,1.76-1.2,3.06-2.75,3.68-4.82.15-.5.25-1.02.38-1.57,1.88-.64,3.09-2.14,4.37-3.61.15.52.15.52.06,1.22-.05.42-.09.83-.15,1.25-.06.42-.13.83-.21,1.24-.08.41-.18.82-.3,1.22-.11.4-.25.79-.37,1.17.04.04.06.08.09.09,1.56.57,3.16.87,4.82.71,1.18-.11,2.01-.74,2.54-1.78.11-.22.21-.44.32-.66.82-1.69,1.85-2.16,3.73-1.62.2-.18.41-.4.65-.59.3-.24.59-.5.93-.67.59-.3,1.09-.09,1.38.51.21.43.24.9.1,1.33-.29.91-.38,1.85-.58,2.77-.05.24-.13.47-.21.7-.27.81-.78,1.3-1.68,1.32-.34.01-.7.08-1.03.18-.19.06-.35.22-.5.36-.18.18-.13.49.08.64.4.28.85.3,1.31.27.77-.05,1.51-.26,2.23-.56.39-.16.78-.31,1.17-.45.99-.33,1.81-.01,2.41.79.91,1.22,1.04,2.57.45,3.97-.41.98-1.14,1.66-2.14,2.03-.19.07-.39.15-.59.22-.06.33-.11.64-.17.95-.24,1.29-.82,2.38-1.85,3.19-.45.35-.67.75-.76,1.3-.15.87-.5,1.67-1.04,2.38-.95,1.23-2.07,1.55-3.52,1-.29-.11-.57-.27-.86-.39-.32-.14-.63-.3-.97-.39-1.07-.28-1.84-.97-2.52-1.79-.08-.09-.08-.24-.13-.42.55-.09.91.26,1.33.36.41.11.82.19,1.26.04.33-.52.22-1.07.06-1.6-.28-.92-.8-1.71-1.47-2.39-.95-.96-2.06-1.67-3.26-2.26-1.45-.72-3-1.14-4.59-1.44-.75-.14-1.51-.24-2.33-.37-.09.17-.14.33-.25.44-.14.14-.31.3-.49.34-.34.08-.69.08-1.04.1-1.21.06-2.34.4-3.4.96-.71.38-1.38.82-2.07,1.23-.15.09-.28.21-.43.3-.94.59-1.94.1-2.03-1.02-.05-.6.03-1.18.25-1.75.16-.43.05-.7-.25-.78-.26-.07-.49.06-.62.42-.15.42-.26.87-.35,1.31-.06.27-.04.56-.06.82-2.07,1.4-5.14,1.77-6.93.83.1-.17.2-.34.29-.52.23-.47.47-.93.68-1.41.07-.15.08-.34.09-.51.01-.21-.17-.43-.38-.42-.15,0-.37.08-.44.19-.15.23-.21.51-.31.77-1.09,2.63-4.35,3.32-6.43,1.37-.05-.05-.07-.12-.13-.22.16-.24.36-.48.51-.75.21-.37.38-.77.28-1.2-.03-.14-.2-.31-.34-.34-.13-.03-.35.07-.44.18-.12.16-.16.38-.23.58-.23.67-.73,1.01-1.4,1.1-.56.08-1.11.03-1.66-.15-1.16-.39-2.11-1.07-2.91-2.07.15-.15.3-.28.42-.43.14-.17.21-.37.07-.57-.14-.2-.34-.23-.56-.18-.14.03-.27.08-.4.13-1.03.33-1.85,0-2.52-.8-.39-.46-.63-1-.77-1.59-.07-.31-.13-.62-.21-.92-.06-.2-.3-.34-.49-.3-.23.05-.36.22-.37.45,0,.34.03.69.04,1.02-.81.19-1.3.16-2.16-.17-1.34-.51-2.7-.95-4.11-1.25-1.44-.31-2.89-.52-4.37-.49-.49.01-.97.08-1.46.13-.14.01-.31.03-.39.12-.11.11-.23.3-.21.43.02.13.18.31.32.35.19.06.41.03.62.01,3.8-.26,7.36.63,10.73,2.33,1.31.66,2.59,1.39,3.85,2.14.75.45,1.45.97,2.14,1.51,1.01.8,1.72,1.84,2.1,3.07.23.73.4,1.48.54,2.24.24,1.24.04,2.44-.42,3.6-.29.71-.63,1.4-.97,2.09-.4.81-.85,1.61-1.24,2.43-.77,1.61-1.08,3.32-.95,5.1.03.48.12.96.19,1.45Z"/>
  <path class="cls-1" d="M103.77,47.67c-.29.09-.35-.17-.46-.32-.96-1.34-2.04-2.57-3.24-3.71-.58-.55-1.21-1.05-1.83-1.57-.13-.11-.28-.21-.43-.29-.38-.21-.69-.15-.86.26-.17.41-.31.86-.36,1.3-.11.83-.06,1.67.16,2.56-.21.05-.41.14-.59.11-.48-.08-.97-.15-1.43-.32-2.41-.89-4.46-2.32-6.14-4.26-.34-.39-.59-.86-.84-1.32-.29-.52-.49-.69-1.08-.61-.37.05-.76.16-1.09.34-.67.38-1.33.78-1.93,1.25-1.27,1-2.4,2.14-3.24,3.54-.05.09-.13.16-.19.23-.29.08-.47-.11-.68-.22-.22-.12-.43-.24-.63-.38-2.12-1.49-4.21-3.02-5.88-5.03-.29-.35-.61-.68-.78-1.17.16-.08.29-.19.45-.23.37-.09.76-.14,1.13-.22,1.01-.24,1.89-.71,2.6-1.49.26-.29.48-.61.54-1,.08-.47-.29-.88-.74-.76-.43.12-.84.33-1.24.53-.5.24-.99.52-1.5.74-.36.15-.75.15-1.13.01-.6-.21-.89-.66-.81-1.3.03-.27.15-.53.23-.8.11-.33.24-.66.33-.99.21-.76-.02-1.39-.63-1.87-.41-.32-.87-.59-1.31-.86-.59-.37-1.19-.74-1.69-1.32.13-.16.26-.31.39-.45.38-.41.8-.79,1.12-1.24.28-.39.47-.85.65-1.3.2-.52.08-1.03-.24-1.49-.12-.17-.25-.32-.42-.54.79-.36,1.57-.46,2.37-.5,2.16-.11,4.25.22,6.29.91.43.15.86.31,1.29.43.58.16,1.17.17,1.75-.07.98-.42,1.22-1.25.62-2.12-.29-.41-.67-.72-1.11-.93-.25-.12-.5-.23-.72-.33-.33-1.04-.64-2.03-.98-3.13.08-.09.23-.27.36-.4.14,0,.22-.04.27,0,1.44.68,2.86.51,4.26-.09.81-.35,1.53-.85,2.11-1.53.35-.42.3-.79-.17-1.03-.34-.17-.71-.29-1.09-.36-1.06-.18-2.09-.02-3.1.3-.97.3-1.89.74-2.73,1.31-.23.16-.46.32-.75.52-.52-.62-1.03-1.23-1.56-1.86.59-1.46,1.59-2.44,3.17-2.73.75-.14,1.52-.23,2.29-.27,1.75-.09,3.49.12,5.23.28,1.53.14,3.06.26,4.6.39.1,0,.2.03.29.05.12.22-.03.34-.14.46-1.52,1.73-1.01,3.74.42,5.03,1.27,1.15,2.81,1.68,4.5,1.77.69.04,1.39-.02,2.15-.04-.05.14-.06.28-.13.37-1.64,1.92-3.41,3.7-5.64,4.96-.12.07-.28.13-.33.24-.07.14-.11.35-.04.48.06.13.25.23.4.26.12.03.27-.05.39-.11.43-.24.88-.45,1.25-.76,1-.81,1.98-1.67,2.95-2.51.26-.23.5-.48.81-.77.11.19.22.32.26.47.35,1.18.49,2.4.64,3.61.19,1.53.56,3.02,1.1,4.47.59,1.56,1.49,2.92,2.54,4.2.42.51.85,1.02,1.26,1.54.17.22.34.44.48.69.3.56.16,1-.41,1.31-.24.13-.51.23-.77.32-.36.13-.72.24-1.1.37-.22-.34-.4-.63-.59-.93-.6-.95-1.24-1.87-2.05-2.65-.35-.34-.75-.62-1.15-.9-.13-.09-.32-.12-.49-.12-.28,0-.49.39-.33.62.08.11.17.22.28.3,1.68,1.14,2.72,2.8,3.6,4.55.24.48.3,1.07.36,1.62.09.73.12,1.46.14,2.2.04,1.23.26,2.43.59,3.61.07.23.09.48.14.72,0,0,.03-.02.03-.02Z"/>
  <path class="cls-1" d="M14.85,86.11c-.16-.05-.25-.05-.29-.09-1.02-1.15-2-2.35-2.7-3.73-1.54-3.01-1.69-6.08-.4-9.22.52-1.26,1.17-2.47,1.93-3.6.96-1.42,1.95-2.82,2.98-4.18,1.22-1.62,2.51-3.18,3.73-4.8.94-1.26,1.84-2.55,2.72-3.85.61-.9,1.12-1.86,1.49-2.88.7-1.93.94-3.87.12-5.83-.11-.26-.18-.53-.22-.81-.03-.24-.02-.49.04-.72.1-.41.53-.61.91-.43.22.1.41.26.6.41.19.15.36.34.57.46.32.19.75-.02.8-.4.04-.27.04-.57-.02-.83-.36-1.49-1.05-2.81-2.16-3.88-.49-.47-1.07-.78-1.72-.97-1.07-.32-2.01-.06-2.81.69-.8.76-1.03,1.72-.81,2.79.04.19.16.39.29.54.07.09.28.16.37.12.14-.06.31-.21.33-.35.03-.23-.03-.48-.07-.72-.07-.47.02-.9.27-1.3.27-.43.64-.72,1.23-.84,0,.18.03.3.02.42-.08.58.07,1.11.28,1.63.24.58.5,1.16.72,1.74.6,1.61.49,3.22-.05,4.83-.08.23-.18.45-.31.66-.32.54-.72.96-1.46.84-.14.34-.27.66-.41.97-.4.94-.93,1.8-1.68,2.51-.27.26-.6.49-.95.62-.52.2-.9-.1-.9-.66,0-.3.03-.61.05-1-.27.12-.45.22-.64.28-.44.15-.75-.04-.81-.51-.02-.14,0-.28,0-.42.01-.95-.15-1.88-.49-2.77-.38-1.01-.79-2.02-1.15-3.04-.3-.85-.62-1.72-.79-2.6-.55-2.81.31-5.19,2.45-7.06,1.47-1.28,3.22-1.95,5.17-2.05.44-.02.91.09,1.33.23,2.46.86,4.36,2.46,5.87,4.55.22.31.41.65.63.97.76,1.12.97,2.37.88,3.7-.16,2.31-.58,4.57-1.3,6.77-1.45,4.39-3.57,8.42-6.44,12.05-.91,1.15-1.83,2.3-2.73,3.46-.79,1.02-1.51,2.1-2.11,3.25-.5.96-.89,1.97-1.15,3.03-.42,1.72-.26,3.41.35,5.05.24.63.22,1.17,0,1.81-.48,1.42-.86,2.88-1.28,4.32-.08.27-.17.53-.27.84Z"/>
  <path class="cls-1" d="M76.21,50.08c0,.37.01.61,0,.85-.11,2.03.47,3.87,1.5,5.59.63,1.06,1.42,1.99,2.32,2.83.2.18.37.38.59.61-.66.24-1.25.43-1.82.67-1.76.75-3.19,1.95-4.23,3.5-1.25,1.87-3.07,2.54-5.11,2.91-1.15.21-2.29.18-3.44,0-.74-.12-1.42-.38-2.01-.83-.88-.68-.98-1.48-.28-2.36.19-.24.43-.46.66-.67,1-.85,1.59-1.93,1.93-3.18.37-1.39.6-2.8.54-4.25,0-.13,0-.27,0-.51.21.09.37.15.5.22.45.26.9.55,1.36.78.13.07.35.04.49-.03.2-.11.25-.32.16-.55-.07-.2-.14-.4-.2-.6-.29-1.02,0-1.88.8-2.54.35-.28.75-.54,1.17-.69,1.64-.6,3.29-1.15,5.07-1.76Z"/>
  <path class="cls-1" d="M79.75,46.01c.11,0,.22-.01.32,0,.48.08.79-.12,1.02-.54.92-1.7,2.29-2.98,3.84-4.09.4-.28.84-.5,1.27-.73.15-.08.33-.09.47-.12.59.75,1.1,1.5,1.72,2.15.6.63,1.27,1.2,1.97,1.72.72.55,1.5,1.01,2.21,1.49-.14.44-.26.86-.41,1.27-.16.46-.31.93-.53,1.36-.99,1.85-2.39,3.35-4.13,4.53-.49.33-.99.65-1.48.99-.43.3-.87.59-1.28.92-1.24.98-2.19,2.15-2.52,3.75-.05.26-.16.51-.27.85-.2-.11-.36-.17-.49-.27-1.96-1.53-3.4-3.46-4.08-5.84-.73-2.56-.19-4.91,1.75-6.85.2-.2.41-.38.62-.57Z"/>
  <path class="cls-1" d="M91.87,60.48c-.24.33-.4.55-.56.78-.59.83-1.02,1.75-1.32,2.72-.26.85-.38,1.71-.09,2.58.27.8.04,1.52-.32,2.22-.43.82-1.06,1.47-1.79,2.03-1.5,1.15-3.2,1.85-5.05,2.18-1.32.23-2.64.26-3.95-.07-.62-.15-1.19-.4-1.7-.79-.58-.44-.95-1-1.02-1.8.19-.05.35-.1.51-.12.97-.14,1.78-.61,2.52-1.22.62-.51.94-1.22,1.1-1.98.18-.85.28-1.72.44-2.58.13-.65.24-1.31.48-1.93.26-.68.59-1.36,1.42-1.55.27-.06.35-.32.39-.57.07-.45.13-.9.22-1.34.24-1.21.86-2.2,1.81-2.99.69-.58,1.43-1.09,2.17-1.56.28.21.19.44.18.62-.09,1.49.52,2.66,1.66,3.55.66.51,1.4.92,2.11,1.36.23.15.48.27.81.46Z"/>
  <path class="cls-1" d="M80.62,61.21c-.46.97-.79,1.92-.96,2.93-.1.59-.16,1.18-.25,1.76-.03.21-.07.41-.1.62-.25,1.51-1.26,2.26-2.63,2.64-.1.03-.21.04-.31.06-1.03.26-1.46,1.08-1.09,2.08.32.86.93,1.46,1.71,1.92.99.58,2.08.8,3.2.9.31.03.62.03,1.01.05-.05.19-.06.36-.13.49-.41.82-.98,1.52-1.7,2.1-.88.71-1.84,1.26-2.85,1.74-1.39.66-2.78,1.3-4.18,1.95-.41.19-.81.4-1.24.62-.45-.29-.69-.76-1.01-1.17-.71-.92-1.18-1.98-1.52-3.08-.26-.85-.05-1.67.27-2.45.23-.58.54-1.14.88-1.66.99-1.48,2.03-2.92,3.05-4.39.44-.63.84-1.29,1.29-1.91.94-1.3,1.86-2.62,3.14-3.63.83-.66,1.71-1.21,2.71-1.56.13-.04.27-.07.41-.09.06,0,.13.03.32.07Z"/>
  <path class="cls-1" d="M28.06,7.83c.93.6,1.64,1.38,2.53,1.91.87.52,1.71,1.09,2.61,1.56.93.48,1.9.86,2.99,1.35.07.14.22.42.36.7,1.26,2.48,3.02,4.53,5.28,6.14.8.57,1.65,1.06,2.56,1.41.22.08.43.19.69.3-.19.29-.35.51-.48.75-.28.52-.32,1.06-.15,1.62.2.65.6,1.18,1.04,1.68.3.33.59.68.92,1.05-.25.2-.62.07-.93.15-.37.09-.76.13-1.12.25-.33.11-.63.29-.87.41-.47-.19-.86-.39-1.29-.51-2.92-.86-5.55-2.28-7.89-4.22-.61-.51-1.15-1.12-1.67-1.73-.24-.28-.4-.65-.53-1.01-.16-.44.03-.77.48-.87.34-.07.69-.08,1.04-.13.17-.02.34-.07.57-.12.29.2.6.41.91.63,1.52,1.07,3.12,2,4.86,2.65,1.08.41,2.19.71,3.36.71.2,0,.43-.01.61-.1.13-.07.25-.28.24-.41,0-.14-.15-.3-.28-.39-.1-.07-.27-.08-.4-.07-1.47.02-2.82-.44-4.13-1.04-2.57-1.17-4.82-2.81-6.85-4.76-1.11-1.07-2.12-2.22-2.98-3.51-.64-.96-1.19-1.97-1.48-3.11-.1-.4-.19-.79,0-1.29Z"/>
  <path class="cls-1" d="M53.04,70.6c4.14-.19,8.17-.69,11.87-2.84,1.15.33,2.36.39,3.59.36,1.19-.03,2.32-.39,3.61-.7-.19.33-.28.53-.41.72-.66.94-1.35,1.87-2,2.82-.81,1.18-1.57,2.39-2.06,3.76-.43,1.2-1.36,1.82-2.62,1.95-.91.09-1.81.04-2.71-.17-3.62-.86-6.61-2.75-9.13-5.45-.07-.08-.12-.17-.17-.26-.01-.02,0-.06.03-.19Z"/>
  <path class="cls-1" d="M99.02,67.09c-.33-.4-.55-.62-.72-.88-1.72-2.54-2.4-5.32-1.91-8.37.17-1.05.58-2.03,1.23-2.86,1.33-1.69,1.88-3.63,2.11-5.72.12-1.07.33-2.14.51-3.21.03-.17.11-.32.19-.53.46.24.68.64.99.97.53.57.9,1.2,1.07,2,.14.68.46,1.32.72,1.96.77,1.92,1.02,3.91.79,5.96-.16,1.42-.65,2.71-1.45,3.89-.32.46-.64.92-1,1.34-1.05,1.26-1.73,2.7-2.17,4.27-.09.33-.19.67-.34,1.17Z"/>
  <path class="cls-1" d="M73.53,41.24c.88.75,1.71,1.5,2.59,2.2.87.69,1.77,1.33,2.68,2.01-.45.56-.91,1.04-1.27,1.59-.37.55-.65,1.16-1.02,1.85-1.2.46-2.48.98-3.82,1.39-.5.15-1.01.29-1.49.48-.45.18-.89.4-1.31.65-.99.58-1.6,1.44-1.76,2.59-.03.19-.07.39-.1.6-2.2-1.18-3.74-3.91-2.42-6.72.32-.69.74-1.36,1.22-1.94,1.8-2.18,4.17-3.57,6.72-4.69Z"/>
  <path class="cls-1" d="M97.68,42.98c.74.37,1.25.94,1.83,1.5-.02.2-.02.41-.06.61-.33,1.54-.59,3.09-.77,4.65-.23,2.03-.93,3.86-2.46,5.31-.87.82-1.58,1.78-2.05,2.89-.28.67-.46,1.37-.7,2.12-1.44-.59-2.88-1.22-4.05-2.3-1.52-1.41-1.31-2.55-.83-4.11.07-.24.33-.44.54-.61.93-.76,1.74-1.62,2.44-2.59.9-1.23,1.6-2.55,1.71-4.17.23.06.41.12.6.17.67.19,1.34.4,2.02.55.6.13,1.18,0,1.72-.29.42-.23.49-.42.27-.84-.47-.92-.51-1.86-.21-2.88Z"/>
  <path class="cls-1" d="M62.8,66.48c-.86.68-1.78.86-2.73.94-.88.07-1.75-.05-2.59-.28-2.75-.74-5.02-2.24-6.81-4.45-.2-.24-.38-.5-.55-.77-.61-.94-.58-1.2.33-1.77,1.85-1.17,3.82-1.49,5.9-.67.42.16.84.33,1.27.5,1.88.74,3.76.63,5.64.02.53-.17,1.03-.43,1.54-.65.18-.08.37-.15.58-.23-.04,1.24-.6,2.4-1.51,3.24-.41.38-.82.76-1.14,1.21-.52.74-.57,1.56-.2,2.39.07.16.15.31.26.53Z"/>
  <path class="cls-1" d="M98.94,12.09c.8,0,1.61.01,2.41,0,1.29-.02,2.47-.4,3.58-1.04.76-.44,1.52-.86,2.28-1.29.15-.08.32-.14.48-.2.15-.05.38.15.34.3-.06.27-.13.54-.23.8-.69,1.67-1.65,3.16-3.06,4.31-1.05.87-2.15,1.68-3.2,2.53-.91.73-1.95,1.06-3.1,1.12-1.46.08-2.85-.19-4.12-.95-.54-.33-1.01-.74-1.35-1.29-.63-1.01-.55-2.11.27-2.98.77-.83,1.75-1.27,2.88-1.31.94-.04,1.88,0,2.83,0h0Z"/>
  <path class="cls-1" d="M82.59,74.06c.82-.23,1.6-.4,2.35-.67.75-.27,1.5-.59,2.18-1,.69-.4,1.35-.88,1.93-1.43.58-.54,1.04-1.2,1.58-1.83.42.64.57,1.36.68,2.08.46,3.03-.54,5.49-2.93,7.39-1.22.97-2.62,1.59-4.1,2.03-1.18.34-2.39.51-3.6.61-.34.03-.69,0-1.09,0,.03-.22.03-.4.08-.55.42-1.08.7-2.19.91-3.32.07-.39.21-.71.45-1.03.53-.73,1.02-1.49,1.56-2.28Z"/>
  <path class="cls-1" d="M71.04,15.11c1.57,2.2,5.08,3.64,7.51,3.38.55.9.69,1.32.71,2.28-.92.15-1.84.35-2.77.46-1.06.12-2.08-.13-3.08-.49-.53-.19-1.05-.39-1.58-.57-.57-.2-1.17-.26-1.76-.16-.34.06-.68.17-.98.34-.55.33-.74.94-.52,1.55.09.26.23.5.37.79-1.14.49-2.25.97-3.38,1.34-1.82-1.66-2.15-4.18-.82-6.11,1.21-1.74,2.88-2.72,5-2.87.45-.03.9.03,1.29.05Z"/>
  <path class="cls-1" d="M95.28,58.26c0,.24.01.47,0,.7-.13,2.48.41,4.8,1.66,6.93.38.65.41,1.24.05,1.87-.93,1.63-2.13,3.03-3.63,4.15-.19.14-.42.24-.64.34-.05.02-.13-.01-.25-.03-.03-.11-.07-.24-.08-.37-.12-1.34-.54-2.59-1.09-3.81-.67-1.49-.85-3.01-.14-4.55.42-.92.85-1.84,1.72-2.52.43.15.82.34.97.83.02.07.05.13.08.19.13.2.34.28.54.18.13-.06.26-.26.26-.39,0-.35-.06-.69-.11-1.04-.15-.9.05-1.73.52-2.5,0-.02.07,0,.15,0Z"/>
  <path class="cls-1" d="M44.04,31.95c-.22-.01-.36,0-.48-.04-2.06-.67-4.07-1.46-5.9-2.64-.67-.43-1.31-.93-1.9-1.46-.33-.29-.56-.71-.78-1.1-.17-.3-.09-.62.16-.86.36-.36.82-.54,1.31-.59.19-.02.4.09.58.18.47.23.92.49,1.39.72,1.25.62,2.54,1.14,3.91,1.47.16.04.32.11.46.15.03.11.07.19.06.24-.31,1.02,0,1.93.49,2.8.2.36.44.7.71,1.12Z"/>
  <path class="cls-1" d="M45.12,33.52c-1.13.69-1.74,1.58-1.78,2.75-.34.24-.66.14-.96.08-1.68-.32-3.19-.99-4.5-2.1-.4-.34-.76-.73-.98-1.21-.27-.59-.09-1.03.54-1.22.23-.07.48-.1.72-.11,1.09-.02,2.16.09,3.2.45,1.12.39,2.25.74,3.38,1.11.09.03.17.1.39.24Z"/>
  <path class="cls-1" d="M63.58,28.95c-.65-.1-1.31-.18-1.96-.32-.42-.09-.8-.31-.87-.8-.05-.35.31-.7.95-.81,1.41-.25,2.64-.87,3.81-1.67.75-.51,1.57-.91,2.49-1.05.42-.07.83-.09,1.24.07.38.15.56.41.46.82-.06.27-.16.54-.31.77-.59.94-1.36,1.69-2.37,2.17-1.09.52-2.24.79-3.46.83Z"/>
  <path class="cls-1" d="M49.21,44.51c-.18.51-.34,1.04-.55,1.55-.06.14-.24.28-.39.31-1.61.39-3.24.57-4.88.22-.43-.09-.86-.29-1.24-.53-.53-.34-.63-.82-.34-1.37.49-.94,1.31-1.54,2.25-1.96.41-.18.89.01,1.18.28,1.07.99,2.38,1.27,3.76,1.39.06,0,.12.06.22.11Z"/>
  <path class="cls-1" d="M44.65,41.73c-1.75-.48-3.38-1.08-4.87-2.01-.38-.24-.73-.54-1.07-.83-.21-.18-.37-.42-.36-.72.12-.29.37-.43.64-.49.47-.11.95-.24,1.43-.26,1.04-.04,2.09-.01,3.14-.01.37.42.7.87,1.1,1.24.4.37.88.65,1.37,1-.7.56-1.06,1.31-1.39,2.07Z"/>
  <path class="cls-1" d="M50.24,50.42c-.13.11-.25.25-.39.31-1.09.5-2.23.82-3.43.74-.41-.03-.83-.13-1.21-.29-.56-.24-.73-.73-.49-1.29.11-.25.24-.51.42-.71.88-.99,1.88-1.74,3.31-1.77.21.56.35,1.14.65,1.64.29.49.74.89,1.15,1.37Z"/>
  <path class="cls-1" d="M77.72,17.46c-.33,0-.6.04-.86,0-1.38-.28-2.65-.81-3.79-1.64-.14-.1-.28-.21-.39-.34-.15-.16-.19-.36-.11-.58.21-.6.79-.95,1.49-.87.24.03.49.09.7.19,1.21.61,2.16,1.5,2.82,2.69.08.14.09.32.15.55Z"/>
  <path class="cls-1" d="M103.75,47.69s.07.09.1.14c0,0-.03.03-.05.05,0-.07-.01-.14-.02-.21,0,0-.03.02-.03.02Z"/>
</svg>