<?xml version="1.0" encoding="UTF-8"?>
<svg id="Livello_1" data-name="Livello 1" xmlns="http://www.w3.org/2000/svg" viewBox="0 0 152.99 144.84">
  <defs>
    <style>
      .cls-1 {
        fill: #963a3b;
      }
    </style>
  </defs>
  <path class="cls-1" d="M54.07,112.13c-1.54,1.55-2.91,2.93-4.38,4.42.51.03,1.01.04,1.5.08,1.49.13,2.97.26,4.46.41.29.03.59.12.86.24.47.2.92.55.61,1.12-.16.28-.68.49-1.02.48-.71-.04-1.4-.28-2.11-.39-4.26-.69-8.34.21-12.28,1.81-.95.38-1.87,1.23-2.47,2.12-2.03,3.01-4.46,5.59-7.1,7.96-.18.16-.34.35-.49.55-.06.09-.05.23-.06.26,1.4-.06,2.82-.21,4.23-.16.68.02,1.39.34,2,.69.23.13.22.73.33,1.12-.35.1-.8.39-1.04.26-1.7-.89-3.43-.59-5.08-.05-2.92.94-5.52,2.45-6.94,5.52-.42.9-.98,1.97-.29,2.84.73.92,1.69.13,2.47-.22,2.63-1.18,5.45-1.33,8.22-1.81.88-.15,1.78-.28,2.64-.53,2.63-.78,4.36-2.58,5.03-5.37.36-1.52.49-3.1.71-4.65.04-.25,0-.5,0-.76.02-.54.18-1.13.76-1,.31.07.67.66.73,1.07.11.74.01,1.51,0,2.26-.01.43-.04.85-.07,1.43,2.31-.68,4.48-.42,6.67-.13,3.17.43,6.03-.36,8.6-2.42,1.62-1.3,3.27-2.55,4.49-4.41-1.07-3.13-.42-5.89,1.97-8.31-1.45-1.82-2.45-3.84-2.1-6.32.34-2.41,1.68-4.11,3.77-5.48-3.85-1.5-7.06-3.68-10.25-5.9-3.67-2.56-6.48-5.95-8.63-9.96-1.26-2.35-1.92-4.91-1.93-7.59-.02-4.67-1.09-9.05-2.99-13.49-3.88,3.56-6.93,7.49-7.96,13.18,1.22-.17,2.2-.4,3.18-.42,1.18-.02,2.37.08,3.54.25.53.08,1.08.46.85,1.18-.18.56-.64.56-1.19.47-3.27-.52-6.48.05-9.54,1.1-2.48.85-4.18,2.89-5.21,5.43-.71,1.76-.35,3.48.56,5.06.8,1.39,1.68,2.74,2.53,4.11,1.59-1.72,2.11-4.73,1.17-6.76-.16-.34-.46-.63-.52-.98-.06-.3.03-.8.23-.95.2-.15.79-.12.92.06.46.64.91,1.34,1.15,2.09.7,2.23.26,4.43-.76,6.39-2.16,4.15-4.8,7.84-9.33,9.45-1.32.47-1.54,1.41-.77,2.63.13.21.27.43.46.58,2.77,2.2,5.86,3.25,9.25,2.11,3.23-1.09,5.42-3.41,6.09-7.04.17-.92.13-1.88.13-2.83,0-.82-.05-1.64-.1-2.45-.16-2.32.54-4.21,2.51-5.53-.06-1.31-.13-2.63-.19-3.94-.01-.25-.01-.51,0-.76.05-.67-.1-1.56.87-1.53.84.03.71.85.73,1.46.04,1.01.09,2.02.08,3.02-.03,3.35,1.51,5.86,3.89,8.06.34-.4.62-.79.96-1.11.62-.59,1.24-1.19,1.92-1.68.21-.15.86-.06.91.08.12.34.05.78-.02,1.16-.03.14-.25.25-.39.37-.23.2-.49.37-.7.59-2.5,2.73-2.23,4.56-.15,6.66,2.81,2.85,6.2,3.91,10.07,3.09.41-.09.82-.28,1.22-.26.35.02.87.2.99.47.25.56-.16.95-.67,1.1-.63.19-1.28.39-1.92.43-1.43.08-2.86.06-4.29.06-.53,0-1.07-.06-1.32-.08Z"/>
  <g>
    <path class="cls-1" d="M151.81,15.55c-.76-1.58-1.45-1.79-2.77-.67-2.4,2.01-5.14,3.26-8.11,3.79-2.59.46-5.23.58-7.85.81-3.03.27-6.1.35-9.11.79-7.62,1.1-13.45,7.17-14.73,15.11-.11.69-.22,1.37-.4,2.03-.79,3.15-4.02,5.34-7.05,4.72-.34-.07-.61-.6-.91-.92.31-.24.58-.63.92-.71.76-.17,1.56-.11,2.31-.27,1.63-.35,1.96-.93,1.65-2.63-.08-.43-.16-.87-.29-1.29-1.15-3.75-3.72-5.9-7.19-7-.87-.28-1.45-.62-1.63-1.68-.23-1.34-1.04-2.4-2.07-3.23-.94-.76-1.91-1.47-2.86-2.2.08-.56.18-1.05.22-1.55.11-1.57.19-3.14.31-4.71.04-.52.24-1.13.84-.94.31.09.68.69.69,1.07.01,1.06-.07,2.15-.25,3.2-.2,1.33.25,2.26,1.21,3.12,2.46,2.19,5.29,3.64,8.35,4.63,1.29.41,2.56.41,3.89.07,1.97-.5,3.69-1.46,5.13-2.94,1.49-1.55,3-3.08,4.36-4.76,2.43-2.99,5.51-4.72,9.08-5.73,3.06-.86,6.18-.58,9.27-.75,1.29-.06,2.39.17,3.51,1.02,1.99,1.48,5.39,1.26,7.21-.24-.48-.36-.94-.72-1.46-1.11,1.51-.67,2.91-1.29,4.34-1.92-.05-.81-.1-1.44-.16-2.41-2.35,2.1-4.79,2.43-7.68,1.97,1.54-1.39,3.15-2.41,3.81-4.27-.11-.17-.16-.32-.25-.37-3.97-2.15-8.56-1.09-10.87,2.14-.14.21-.24.53-.42.59-.3.11-.7.15-.98.02-.16-.07-.25-.54-.22-.8.07-.44.28-.85.5-1.46-2.52.57-4.72.1-6.89-.72-2.43-.92-4.85-.72-7.17.36-1.36.64-2.67,1.44-3.86,2.35-2.43,1.85-4.7,3.9-7.15,5.72-1.2.89-2.57,1.65-3.96,2.11-2.1.7-4.28.95-6.42-.02,0-1.15.42-1.49,1.36-1.3.71.14,1.45.16,2.3.24-.92-2.52-4.03-4.01-8.97-4.47-.15-.28-.34-.6-.5-.93-1.31-2.78-3.59-4.14-6.38-4.61-.66-.12-1.47,0-2.07.31-2.6,1.35-3.81,5.75-2.37,8.56.49-.36.94-.79,1.48-1.05,1.08-.52,2.18-.99,3.3-1.4.5-.18,1.04.04,1.06.65.01.31-.34.72-.64.93-.28.2-.69.17-1.03.3-2.47.91-4.21,2.63-4.97,5.3-.56,1.97.16,3.67,1.68,4.76,1.09.78,2.07.24,3.08-.02,4.35-1.14,9.21,1.55,10.78,5.94.64,1.79.35,3.33-.93,4.67-.29.31-.61.59-.94.88-1.48,1.31-2.84,2.68-3.61,4.62-.25.65-.85,1.25-1.44,1.61-2.11,1.29-5.33.47-6.76-1.64-1.67-2.44-1.7-6.85-.07-9.32.85-1.29,2.1-1.58,3.48-1.47,1.23.09,1.96.92,2.37,2.03.58,1.56.75,3.17.08,4.78-.13.32-.22.65-.36,1.06,2.19-.4,3.6-1.93,4.06-4.25.82-4.18-1.93-7.41-5.94-6.97-1.84.2-3.5.91-4.94,2.06-.89.7-2.14,1.03-3.21.16-1.07.87-2.32.54-3.21-.16-1.44-1.14-3.1-1.86-4.94-2.06-4.01-.43-6.76,2.79-5.94,6.97.46,2.32,1.87,3.85,4.06,4.25-.13-.4-.22-.73-.36-1.06-.67-1.61-.5-3.22.08-4.78.41-1.1,1.15-1.93,2.37-2.03,1.38-.11,2.63.17,3.48,1.47,1.63,2.47,1.6,6.88-.07,9.32-1.44,2.11-4.65,2.93-6.76,1.64-.58-.35-1.18-.96-1.44-1.61-.77-1.94-2.13-3.31-3.61-4.62-.32-.28-.64-.57-.94-.88-1.28-1.34-1.57-2.88-.93-4.67,1.57-4.39,6.43-7.07,10.78-5.94,1.01.27,1.98.8,3.08.02,1.52-1.08,2.24-2.78,1.68-4.76-.76-2.67-2.49-4.38-4.97-5.3-.34-.13-.75-.1-1.03-.3-.29-.21-.65-.62-.64-.93.01-.62.55-.84,1.06-.65,1.12.41,2.22.88,3.3,1.4.53.26.98.69,1.48,1.05,1.44-2.81.22-7.21-2.37-8.56-.6-.32-1.41-.43-2.07-.31-2.79.47-5.07,1.83-6.38,4.61-.16.33-.35.65-.5.93-4.94.47-8.04,1.95-8.97,4.47.85-.08,1.59-.09,2.3-.24.94-.19,1.36.15,1.36,1.3-2.13.97-4.32.73-6.42.02-1.39-.47-2.76-1.22-3.96-2.11-2.44-1.82-4.72-3.87-7.15-5.72-1.2-.91-2.51-1.71-3.86-2.35-2.31-1.08-4.74-1.29-7.17-.36-2.17.82-4.37,1.29-6.89.72.22.61.43,1.02.5,1.46.04.26-.06.73-.22.8-.28.13-.68.09-.98-.02-.18-.06-.28-.39-.42-.59-2.31-3.23-6.9-4.28-10.87-2.14-.09.05-.14.2-.25.37.65,1.85,2.26,2.88,3.8,4.27-2.88.46-5.33.13-7.68-1.97-.06.96-.1,1.59-.16,2.41,1.44.63,2.83,1.25,4.34,1.92-.52.39-.98.75-1.46,1.11,1.82,1.51,5.22,1.73,7.21.24,1.12-.84,2.22-1.08,3.51-1.02,3.09.17,6.22-.11,9.27.75,3.57,1,6.64,2.74,9.08,5.73,1.36,1.67,2.87,3.21,4.36,4.76,1.44,1.48,3.16,2.44,5.13,2.94,1.33.34,2.6.34,3.89-.07,3.06-.99,5.89-2.44,8.35-4.63.96-.85,1.41-1.78,1.21-3.12-.17-1.06-.26-2.14-.25-3.2,0-.38.37-.98.69-1.07.6-.19.8.42.84.94.13,1.57.2,3.14.31,4.71.04.5.13.99.22,1.55-.95.73-1.93,1.44-2.86,2.2-1.03.83-1.84,1.88-2.07,3.23-.18,1.06-.76,1.4-1.63,1.68-3.47,1.1-6.04,3.25-7.19,7-.13.42-.21.85-.29,1.29-.31,1.7.01,2.27,1.65,2.63.76.16,1.56.1,2.31.27.34.08.61.47.92.71-.31.32-.57.85-.91.92-3.03.62-6.25-1.57-7.05-4.72-.17-.66-.28-1.35-.4-2.03-1.27-7.94-7.1-14.01-14.73-15.11-3.01-.43-6.07-.52-9.11-.79-2.62-.24-5.26-.35-7.85-.81-2.97-.53-5.71-1.77-8.11-3.79-1.33-1.12-2.01-.91-2.77.67-2.43,5.06-1.03,11.23,3.4,14.49,3.95,2.9,8.44,3.67,13.16,3.23.54-.06,1.08-.19,1.6-.13.28.02.76.44.73.59-.07.35-.35.85-.62.91-1.05.21-2.13.32-3.2.38-1.62.08-2.69.8-3.27,2.33-.42,1.11-.14,2.13.92,2.48,2.92.94,5.87,1.77,8.95.8.52-.17,1.05-.24,1.15.37.06.35-.26,1.03-.57,1.16-.8.35-1.69.48-2.6.71-.11.91-.19,1.84-.34,2.75-.39,2.33.86,3.62,3.09,3.13.23-.05.46-.13.69-.23,2.51-1.06,5.03-.89,7.54-.02,3.79,1.31,6.82,3.65,8.77,7.35.58,1.08.91,2.31,1.44,3.68,1.05-.11,2.22-.27,3.38-.34.6-.04,1.49-.39,1.58.65.09,1.03-.81.86-1.42.95-1.36.21-2.72.44-4.08.62-.39.05-.8-.05-1.34-.09.31-3.1-1-5.44-2.91-7.45-2.12-2.23-4.65-3.7-7.66-4.2-3.45-.58-6.94,3.2-6.19,6.82.2.97.56,1.95,1.05,2.79,1.91,3.29,4.37,5.99,7.85,7.47.16.06.38.1.48.23.19.28.52.75.43.88-.19.3-.64.65-.93.59-.63-.11-1.3-.34-1.82-.73-1.51-1.13-2.97-2.33-4.41-3.54-.5-.43-.9-.99-1.45-1.62-2.05,1.88-2.49,4.1-1.9,6.51,1.06,4.35,3.72,7.11,7.92,8.06.96.22,2.02.09,3.01-.07,1.29-.21,2.2-.98,2.93-2.22,4.01-6.89,9.83-11.41,17.05-13.98,4.23-1.51,8.53-1.74,12.85-.24,4.82,1.67,7.15,5.58,6.19,10.8-.32,1.77-.99,3.48-1.52,5.2-.19.6-.5,1.15-.67,1.75-.44,1.52.4,2.52,1.89,2.15.8-.2,1.54-.67,2.35-1.05.4.24,1.07.51,1.69.88.61-.37,1.28-.64,1.69-.88.82.38,1.55.85,2.35,1.05,1.5.36,2.34-.63,1.9-2.15-.17-.6-.49-1.15-.67-1.75-.53-1.73-1.2-3.43-1.52-5.2-.96-5.22,1.37-9.12,6.19-10.8,4.32-1.5,8.62-1.26,12.85.24,7.21,2.57,13.04,7.09,17.05,13.98.73,1.25,1.64,2.01,2.93,2.22.99.16,2.05.29,3.01.07,4.19-.95,6.85-3.71,7.92-8.06.59-2.41.16-4.62-1.9-6.51-.55.62-.94,1.19-1.45,1.62-1.45,1.21-2.9,2.41-4.41,3.54-.52.39-1.19.62-1.82.73-.28.06-.73-.29-.93-.59-.08-.13.24-.61.43-.88.1-.13.31-.17.48-.23,3.48-1.48,5.94-4.18,7.85-7.47.49-.84.85-1.82,1.05-2.79.75-3.62-2.74-7.41-6.19-6.82-3.01.5-5.54,1.97-7.66,4.2-1.92,2.01-3.23,4.35-2.91,7.45-.54.04-.95.13-1.34.09-1.36-.18-2.72-.41-4.08-.62-.61-.09-1.51.08-1.42-.95.09-1.04.98-.69,1.58-.65,1.16.07,2.33.23,3.38.34.52-1.37.86-2.6,1.44-3.68,1.95-3.7,4.98-6.04,8.77-7.35,2.51-.87,5.03-1.04,7.54.02.22.09.46.18.69.23,2.22.49,3.48-.8,3.09-3.13-.15-.91-.22-1.85-.34-2.75-.91-.23-1.8-.36-2.6-.71-.31-.13-.63-.8-.57-1.16.1-.62.63-.54,1.15-.37,3.08.97,6.03.13,8.95-.8,1.06-.35,1.34-1.36.92-2.48-.58-1.53-1.65-2.26-3.27-2.33-1.07-.06-2.15-.17-3.2-.38-.27-.06-.55-.56-.62-.91-.03-.15.46-.57.73-.59.52-.06,1.06.08,1.6.13,4.72.44,9.21-.32,13.16-3.23,4.43-3.26,5.83-9.43,3.4-14.49ZM41.19,50.63c-.4-.22-.7-.31-.92-.5-2.72-2.43-4.73-5.33-5.33-9.12-.19-1.18-.31-2.38-.33-3.57-.08-3.53-1.83-5.88-4.83-7-2.69-.99-5.51-1.64-8.31-2.22-3.64-.76-7.27-1.47-10.7-3.04-2.49-1.15-4.43-2.95-5.83-5.39-.15-.25-.19-.57-.39-1.22.78.65,1.24,1.03,1.71,1.43,2.6,2.19,5.47,3.87,8.74,4.61,2.51.56,5.06.93,7.59,1.29,2.79.39,5.58.67,8.19,1.88,3.9,1.78,6.45,4.69,7.07,9.25.1.74.28,1.48.37,2.23.4,3.38,1.57,6.32,4.37,8.31.08.06.09.21.15.37-.47.83-.97,1.68-1.56,2.71ZM148.28,19.78c-1.4,2.44-3.33,4.24-5.83,5.39-3.43,1.58-7.06,2.29-10.7,3.04-2.8.58-5.63,1.23-8.31,2.22-3,1.11-4.75,3.47-4.83,7-.02,1.19-.14,2.39-.33,3.57-.6,3.79-2.61,6.7-5.33,9.12-.22.19-.52.28-.92.5-.59-1.03-1.09-1.88-1.56-2.71.06-.16.07-.32.15-.37,2.79-2,3.96-4.93,4.37-8.31.09-.75.26-1.49.37-2.23.62-4.56,3.17-7.47,7.07-9.25,2.61-1.21,5.41-1.49,8.19-1.88,2.54-.35,5.09-.73,7.6-1.29,3.27-.73,6.14-2.41,8.74-4.61.46-.39.93-.78,1.71-1.43-.2.65-.24.97-.39,1.22Z"/>
    <path class="cls-1" d="M99.16,112.13c1.54,1.55,2.91,2.93,4.38,4.42-.51.03-1.01.04-1.5.08-1.49.13-2.97.26-4.46.41-.29.03-.59.12-.86.24-.47.2-.92.55-.61,1.12.16.28.68.49,1.02.48.71-.04,1.4-.28,2.11-.39,4.26-.69,8.34.21,12.28,1.81.95.38,1.87,1.23,2.47,2.12,2.03,3.01,4.46,5.59,7.1,7.96.18.16.34.35.49.55.06.09.05.23.06.26-1.4-.06-2.82-.21-4.23-.16-.68.02-1.39.34-2,.69-.23.13-.22.73-.33,1.12.35.1.8.39,1.04.26,1.7-.89,3.43-.59,5.08-.05,2.92.94,5.52,2.45,6.94,5.52.42.9.98,1.97.29,2.84-.73.92-1.69.13-2.47-.22-2.63-1.18-5.45-1.33-8.22-1.81-.88-.15-1.78-.28-2.64-.53-2.63-.78-4.36-2.58-5.03-5.37-.36-1.52-.49-3.1-.71-4.65-.04-.25,0-.5,0-.76-.02-.54-.18-1.13-.76-1-.31.07-.67.66-.73,1.07-.11.74-.01,1.51,0,2.26.01.43.04.85.07,1.43-2.31-.68-4.48-.42-6.67-.13-3.17.43-6.03-.36-8.6-2.42-1.62-1.3-3.27-2.55-4.49-4.41,1.07-3.13.42-5.89-1.97-8.31,1.45-1.82,2.45-3.84,2.1-6.32-.34-2.41-1.68-4.11-3.77-5.48,3.85-1.5,7.06-3.68,10.25-5.9,3.67-2.56,6.48-5.95,8.63-9.96,1.26-2.35,1.92-4.91,1.93-7.59.02-4.67,1.09-9.05,2.99-13.49,3.88,3.56,6.93,7.49,7.96,13.18-1.22-.17-2.2-.4-3.18-.42-1.18-.02-2.37.08-3.54.25-.53.08-1.08.46-.85,1.18.18.56.64.56,1.19.47,3.27-.52,6.48.05,9.54,1.1,2.48.85,4.18,2.89,5.21,5.43.71,1.76.35,3.48-.56,5.06-.8,1.39-1.68,2.74-2.53,4.11-1.59-1.72-2.11-4.73-1.17-6.76.16-.34.46-.63.52-.98.06-.3-.03-.8-.23-.95-.2-.15-.79-.12-.92.06-.46.64-.91,1.34-1.15,2.09-.7,2.23-.26,4.43.76,6.39,2.16,4.15,4.8,7.84,9.33,9.45,1.32.47,1.54,1.41.77,2.63-.13.21-.27.43-.46.58-2.77,2.2-5.86,3.25-9.25,2.11-3.23-1.09-5.42-3.41-6.09-7.04-.17-.92-.13-1.88-.13-2.83,0-.82.05-1.64.1-2.45.16-2.32-.54-4.21-2.51-5.53.06-1.31.13-2.63.19-3.94.01-.25.01-.51,0-.76-.05-.67.1-1.56-.87-1.53-.84.03-.71.85-.73,1.46-.04,1.01-.09,2.02-.08,3.02.03,3.35-1.51,5.86-3.89,8.06-.34-.4-.62-.79-.96-1.11-.62-.59-1.24-1.19-1.92-1.68-.21-.15-.86-.06-.91.08-.12.34-.05.78.02,1.16.03.14.25.25.39.37.23.2.49.37.7.59,2.5,2.73,2.23,4.56.15,6.66-2.81,2.85-6.2,3.91-10.07,3.09-.41-.09-.82-.28-1.22-.26-.35.02-.87.2-.99.47-.25.56.16.95.67,1.1.63.19,1.28.39,1.92.43,1.43.08,2.86.06,4.29.06.53,0,1.07-.06,1.32-.08Z"/>
    <path class="cls-1" d="M106.83,66.78c-.48,1.49-.88,2.93-1.39,4.32-.97,2.6-1.44,5.28-1.56,8.09-.3,7.09-3.15,12.94-8.55,17.12-5.12,3.97-10.66,7.19-16.98,8.63-.45.09-1.03.35-1.74.64-.71-.29-1.29-.54-1.74-.64-6.32-1.44-11.86-4.66-16.98-8.63-5.4-4.18-8.25-10.03-8.55-17.12-.12-2.81-.59-5.49-1.56-8.09-.52-1.4-.92-2.83-1.39-4.32,3.81-2.56,7.74-4.2,12.05-4.97,2.46-.44,4.88-.43,7.25.43,1.52.56,2.93,1.32,3.8,2.85-2.64,2.56-6.83,2.78-9.42.58-.18-.16-.34-.42-.55-.47-.25-.06-.63-.06-.8.09-.18.16-.31.62-.22.81.21.43.52.87.88,1.16,1.47,1.2,3.15,1.77,5.02,1.62,2.17-.17,4.21-.76,6.21-2.26.23.95.5,1.71.58,2.49.19,1.92-.2,3.75-1.03,5.47-.46.96-.93,1.91-1.32,2.89-1.37,3.4,1.18,5.08,3.39,4.95.57-.03,1.14-.11,1.74-.17v2.48c-2.6-.52-4.06.28-5.76,3.15,1.03-.34,1.96-.83,2.94-.91.95-.09,1.94.24,2.93.39,0,.69.01,1.13,0,1.56,0,.1-.13.2-.19.3-3.33-.65-4.72.32-5.71,4.13.58.22,1.15.59,1.76.65,1.12.12,2.26.1,3.39.05,1.06-.06,2.27-.28,3.28.28,1-.56,2.22-.34,3.28-.28,1.12.06,2.26.07,3.39-.05.61-.06,1.18-.43,1.75-.65-.98-3.82-2.37-4.79-5.71-4.13-.07-.1-.19-.2-.19-.3-.02-.43-.01-.87-.01-1.56,1-.15,1.98-.47,2.94-.39.97.09,1.91.58,2.94.91-1.7-2.87-3.17-3.67-5.76-3.15v-2.48c.59.06,1.16.14,1.74.17,2.21.13,4.76-1.55,3.39-4.95-.4-.99-.87-1.93-1.32-2.89-.82-1.73-1.22-3.55-1.03-5.47.07-.78.34-1.54.57-2.49,2.01,1.5,4.04,2.1,6.22,2.26,1.87.15,3.54-.42,5.02-1.62.37-.29.67-.73.88-1.16.09-.2-.04-.65-.22-.81-.17-.16-.55-.16-.8-.09-.21.05-.37.31-.55.47-2.58,2.21-6.77,1.98-9.41-.58.87-1.53,2.28-2.29,3.8-2.85,2.37-.86,4.78-.88,7.25-.43,4.3.76,8.25,2.41,12.05,4.97Z"/>
    <path class="cls-1" d="M86.96,123.11c-.16.58-.69,1.19-1.2,1.51-1.88,1.18-3.88,1.05-5.88.32-1.57-.58-1.78-.58-3.27-.19-1.49-.39-1.69-.39-3.27.19-1.99.73-3.99.85-5.87-.32-.51-.32-1.03-.92-1.2-1.51-.62-2.25.55-4.5,2.68-5.37,1.01-.41,1.12-1.08.3-1.78-.18-.16-.42-.24-.61-.39-2.1-1.62-2.78-4.34-1.69-6.7,1.11-2.4,3.4-3.39,6-2.63,1.11.33,2.38,1.03,3.66.24,1.27.8,2.55.09,3.66-.24,2.6-.76,4.89.23,5.99,2.63,1.09,2.36.41,5.07-1.69,6.7-.19.14-.43.23-.61.39-.82.7-.7,1.37.31,1.78,2.13.88,3.3,3.12,2.68,5.37Z"/>
  </g>
</svg>