<?xml version="1.0" encoding="UTF-8"?>
<svg id="Livello_1" data-name="Livello 1" xmlns="http://www.w3.org/2000/svg" viewBox="0 0 234.41 144.84">
  <defs>
    <style>
      .cls-1 {
        fill: #493b50;
      }
    </style>
  </defs>
  <path class="cls-1" d="M63.14,5.59c.72,0,1.35.5,1.5,1.21.93,4.32,3.63,14.02,8.35,11.67,4.21-2.1-1.03-9.11-4.32-11.92-.27-.23-.03-.67.31-.57,7.09,2.17,9.83,8.02,12.77,14.59.02.05.24.44.82,1.77,1.03,2.35,2.56,5.55,3.39,8.33,1.94,6.5,2.33,8.56,2.78,7.61,1.64-3.46-4.26-18.3-9.24-26.23-.2-.31,0-.73.36-.78,2.68-.31,2.69,2.08,4.51,3.34.9.63,2.85.9,3.24,1.44.18.25-.54,1.88.09,3.39.76,1.81,3.4,2.86,3.58,3.18s-.83,4.88-.49,6.61c.31,1.57,2.12,2.26,2.17,2.92.03.39-.87,1.46-.99,2.38-.57,4.4,2.11,5.58,2.16,6.38.03.47-.81,1.23-.92,1.9-.31,1.93.5,3.62,1.98,4.67.52.37.77,1,.59,1.61-.21.72-.54,1.6-.97,2-1.64,1.53-7.21,3.16-5.78,4.73,1.96,2.15,5.52-2.84,8.5-2.94,2.04-.07,3.87.79,5.61,1.31,2.63.78,5.28-1.29,5.08-4.03-.4-5.51-5.15-10.55-5.7-16.32-1.22-12.95,14.26-16.51,24.22-18.19.44-.07.82.3.77.75-1.14,9.7-16.34,5.85-16.38,19.13,0,2.35.61,7.89,2.16,13.27.33,1.14,1.55,1.98,1.43,1.16-.77-5.33-6.04-20.08,3.26-21.58,5.44-.88,6.67,5.66-.09,4.27-.17-.04-.27.19-.13.29l2.68,1.87c1.05.73,1.92,1.7,2.53,2.82l.14.26c.22.4.14.91-.22,1.18-1.79,1.34-4.13.22-6.15-.16-.22-.04-.45.14-.42.36.2,1.27,5.28,3.38,5.28,5.25,0,1.8-3.65,2.23-5.37,2.47-.22.03-.38.24-.35.47.25,1.64,3.21,1.91,2.81,3.87-.39,1.91-3.49,1.61-5.26,1.56-.35-.01-.59.33-.48.66.52,1.55,3.28,4.98.52,6.06-.41.16-.88.13-1.28-.05l-2.43-1.04c-.34-.15-.71.13-.65.5.29,2.03-.2,5.26-2.04,5.33-2.79.11-2.74-3.14-3.2-4.5-.13-.37-.61-.47-.89-.2l-2.9,2.77c-1.4,1.19-3.37.47-3.59-1.26-.14-1.14-.09-2.37-.33-3.07-.09-.26-.43-.29-.6-.08-1.29,1.69-1.11,3.82-4.28,4.61-1.31.33-1.69-.18-2.01-1.28-.65-2.16.09-2.97-.83-3.21-1.38-.35-.7,4.78,1.02,5.54,1.82.8,3.71.51,5.79-2.35.06-.09.2-.05.2.06.22,4.38,4.68,4.12,7.03,1.21.13-.17.38-.15.49.04,2.56,4.56,6.59,3.81,7.05-.92.06-.66.68-1.09,1.34-1.01,4.43.58,5.57-2.09,3.44-6.52-.03-.06.02-.13.09-.12,2.11.24,4.09.18,4.98-1.75.17-.37.26-.76.28-1.21.06-1.19-1.07-2.35-1.58-2.98-.14-.17.02-.42.23-.36,2.91.79,7.22,2.7,6.09,5.79-.25.69-.9,1.16-1.62,1.25l-2.53.32c-.54.07-.8.7-.47,1.13.78,1,2.05,2.28,1.8,3.62-.6,3.15-4.84,2.32-6.7,1.94-1.16-.24-1.49.32-.7,1.21.46.52,1.08.96,1.24,1.85.87,5-5.52,4.37-8.46,2.01-.4-.32-.93-.23-1.15.24-.65,1.35-.29,2.87-2.39,3.28-5.3,1.01-4.88-3.38-6.41-4.08-1.18-.54-.59,1.71-2.18,2.5-2.84,1.42-2.13-1.91-4.86-3.26-2.29-1.14-2.5-.71-5.06-.92-.61-.05-1.23.41-1.34,1.02-.55,3.08,2.38,6.47,4.71,6.22.99-.11,1.53-.32,2.62-.87.85-.44,1.73-.02,1.9.92.79,4.43,4.02,3.58,7.16,1.17.74-.57,1.76-.58,2.5,0,1.43,1.13,2.73,2.47,4.3,3.34,2.64,1.47,5.85-.94,5.03-3.84-.05-.19-.12-.39-.2-.58-.29-.76.6-1.7,1.22-1.17,2.66,2.3,6.85,2.62,8.39-1.39.58-1.5-.11-3.7,1.14-3.97,7.44-1.64,30.75-3.85,30.75-3.85,5.96-.71,12.04.02,17.54,2.44,9.75,4.28,17,12.75,16.06,24.72-.64,8.2-6.98,16.73-6.34,23.89.33,3.67,2.64,8.1,2.14,11.6-.45,3.11-3.67,5.96-4.58,8.88-1.3,4.18.27,10.43-5.15,11.37-.54.09-1.08-.16-1.39-.6s-.66-.8-1.08-1.05c-1.98-1.21-6.27,1.16-8.33.45-.71-.24-.72-1.18-1.14-1.5-.47-.35-1.24.32-1.54-.17-.37-.6.82-2.96-.85-4.02-.45-.29-.57-.92-.17-1.27,2.53-2.25,8.97-2.46,10.21-3.6,1.06-.98,2.52-7.29,2.52-8.91-.01-6.82-4.04-7.74-7.19-12.13-2.17-3.02-1.22-9.2-4.83-9.77-2.18-.35,1.7,5.93,2.01,8.12.85,5.97-5.41,7.79-7.45,12.14-1.05,2.24-3.26,3.94-4.21,6.3-1.96,4.82-.31,11.04-6.46,12.97-.44.14-.92-.07-1.1-.5l-.75-1.78c-.24-.57-.88-.86-1.47-.65-2.72.94-5.91,1.45-8.47.1-.49-.26-.76-.81-.67-1.36.12-.78.38-1.55.32-2.36-.05-.72-3.23-1.81,1.09-3.49,5.37-2.08,6.65.64,10.04-6.31,3.9-7.99.12-9.37-.13-16.44-.2-5.56,1.75-12.86,7.32-15.41,1.48-.68,4.41-1.07,3.21-2.42-2.85-3.2-7.87,3.59-11.67,5.56-10.09,5.21-30.15,10.42-40.92,7-3.76-1.19-3.97-8.32-3.7-11.33.04-.41,1.06-5.98-.94-4.73-1.08.68-1.55,5.13-1.44,7.36.14,2.83,1.79,6.5,1.45,8.67-.25,1.57-3.49,4.19-3.97,6.59-.37,1.82.05,3.7-.27,5.57-.49,2.86-2.48,6.28-2.64,9.64-.18,3.76,1.36,6.91,2.31,10.35.18.67.04,1.39-.37,1.95-1.06,1.43-2.8,2.18-4.67,1.85-.87-.15-1.62-1.19-2.27-1.08s-1.29,1.19-2.07,1.37c-.65.15-1.48-.38-2.08-.26-1.83.38-2.6,2.25-4.98.24-1.82-1.54-.68-6.49,1.17-7.54,1.2-.68,4.2-.73,5.09-1.63,1.79-1.79.13-8.16.11-10.64-.04-3.96,1.02-9.42.56-12.83-1.15-8.55-6.49-10.23-2.73-20.93.5-1.42,1.3-3.01,1.02-3.35-.89-1.09-1.54.14-1.94,1.17-1.18,3.07-1.8,6.94-2.23,10.28-.09.71-.91,1.03-1.48.61-1.56-1.15-1.48-2.61-2.83-3.9-.57-.55-2.18-.48-1.39-1.7.13-.2,2.61-.44,1.1-1.21-2.86-1.46-5.63,2.81-8.93,1.04-1.68-.9-1.37-2.2-2.42-3.42-2.61-3.04-13.54-2.97-14.35-6.98-.13-.64,1.52-1.41,1.16-2.33-.78-1.96-5.67,1.89-7.34.63-.61-.45-.89-1.83-1.41-2.14-.99-.58-.92.86-2.41-.81-.28-.32-.78-.34-1.07-.03-.98,1.05-1.41,2.98-2.62,2.39-.52-.26-.51-1.8-1.49-1.79-2.87.02-3.54,5.65-5.77,4.01-2.72-2,.16-4.25,2.31-6.01,3.71-3.04,7.59-5.5,12.54-5.04,3.41.32,5.55,3.21,9.14,4.29,5.79,1.75,11.05-.61,15.39,4.47,1.16,1.36.83,3.55,2.01,2.95,3.39-1.72-2.93-5.38-3.87-7.22-1.1-2.16-1.58-10.13-1.23-12.78,1.01-7.44,7.07-11.25,4.24-20.31-3.46-11.06-9.46-.68-11.81-.07-5.37,1.39-2.8-10.83,2.1-9.09,2.81,1,5.68-1.72,4.67-4.52-1.79-5-10.93,3.36-13.38,8.71-.95,2.08-1.17,4.79-4.23,4.31-.89-.14-2.67-1.05-3.62-2.84-3.33-6.26,6.67-21.6,12.65-26.88.68-.6,1.75-.09,1.73.81-.06,2.96-1.42,8.37-1.25,10.01.21,2.02,2.16,2.29,3.48,1.65.89-.43,1.22-1.52.84-2.44-3.28-7.78-1.56-12.94,7.2-12.9Z"/>
  <path class="cls-1" d="M142.67,22.33c1.06.29,1.47,1.58.75,2.42l-.02.02c-2.32,2.7-13.29,3.66-14,4.4-.33.34-.4,1.31.74,1.04,3.58-.86,8.11-1.8,11.3-2.75.8-.24,1.38-.1,2.05.18.87.36,1.01,1.52.25,2.07-4.06,2.88-12.14,3.62-13.18,4.72-.69.73.28,1.06.93,1.05,2-.03,9.02-2.71,12.23-3.03.8-.08,1.41.7,1.15,1.46-1.72,5.03-10.23,7.32-13.55,9.16-1.17.65-2.33,1.13-1.34,1.87.52.39,8.74-4.32,12.25-5.14,1.04-.24,1.8.64,1.37,1.62-.7,1.59-2.2,2.98-3.43,4.09-1.5,1.35-8.5,5.37-8.76,5.83-.44.75,1.75,3.72-1.48,5.54-.18.1-.37.17-.58.22-1.1.28-1.65,1.53-1.22,2.57,1.61,3.86-5.73,4.39-6.85,5.22s0,3.26-1.23,4.9c-1.9,2.54-5.7,1.03-4.4.28,2.25-.81,2.15-3.04,2.07-5.08-.03-.67.5-1.24,1.17-1.24,3.75,0,5.3-3.1,4.17-6.82-.04-.14.04-.29.19-.32,5.86-1.36,3.21-7.52-1.11-9.47-.15-.07-.19-.25-.09-.38,1.35-1.74.96-3.25-.54-4.74-.12-.12-.07-.33.1-.38,4.89-1.39,4.24-4.71.52-7.27-.15-.1-.14-.32.02-.41,4.56-2.51,3.06-6.24-1.56-6.65-.21-.02-.27-.31-.08-.4,6.72-3.47,14.6-6.59,22.15-4.55Z"/>
  <path class="cls-1" d="M187.34,77.17c-.17-.64.35-1.26,1.01-1.31,3.73-.28,4.92,1.75,6.14,5.64,2.07,6.59-3.27,13.64-.59,19.89.93,2.18,1.67.92,2.33-.61,2.61-6.01-1.02-19.94-.66-27.06.48-9.48,13.6-15.53,15.09-4.88.64,4.62.43,4.51.44,7.69,0,2.37,1.31,15.66-3.47,13.48-5.29-2.42.93-12.91-1.47-16.66-1.77-2.77-4.16.27-4.69,2.31-.99,3.83-.36,13.91-.3,18.44.07,5.41,3.05,13.49-5.58,13.65-14.83.27-4.07-13.82-6.05-23.06-.6-2.8-1.76-5.87-2.21-7.52Z"/>
  <path class="cls-1" d="M148.21,19.42c-.54.44-.24,1.29.45,1.18,2.27-.36,4.56-1.6,8.06-2.97,3.68-1.44,8.73-3.41,11.63-3.74.18-.02.36-.02.53,0,1.54.11,2.39,1.85,1.54,3.14-1.7,2.55-6.33,5.43-7.71,6.24-3.49,2.04-8.22,4.53-11.73,5.13-1.61.27-.6,1.16,1.67.94,3.38-.34,7.81-2.89,10.77-4.57,1.44-.81,2.58-1.9,4-2.66.88-.47,1.77.62,1.16,1.4-4.39,5.65-13.93,7.62-18.78,10.73-1.2.77.15,1.51,1.34,1.05.88-.34,10.57-4.93,11-4.64,1.59,1.09-7.23,7.52-10.5,9.8-.66.46-3.15,2.08-5.49,3.45-1.09.64-2.32-.59-1.67-1.68.49-.81.77-1.62.59-2.32-.23-.87-1.32-.86-1.15-1.83s5.39-5.32,1.09-6.55c-.46-.13-.58-.72-.19-1.01,3.57-2.69-1.03-3.71-.63-4.76.31-.82,1.48-1.71.7-3.2-1.12-2.15-8.24-2.7-12.25-1.7-1.39.35-2.58.57-4.28,1.41-.74.36-1.41-.73-.95-1.42l2.48-4.28c.09-.13.3-.77.92-1.16,1.27-.82,17.1-3.94,24.01-3.98,5.92-.03,9.9,1.47-3.06,6.34-2.21.83-2.84,1.12-3.53,1.68Z"/>
  <path class="cls-1" d="M66.28,7.34c.92-1.01,6.36,4.43,6.57,7.85.09,1.55-1.78,2.35-2.83,1.21-2.16-2.33-4.36-8.38-3.74-9.05Z"/>
  <path class="cls-1" d="M104.47,72.82c-.38-.46-.18-1.16.37-1.37,2.28-.85,4.05-4.57,5.44-.36,1.97,5.98-3.2,4.94-5.81,1.73Z"/>
  <path class="cls-1" d="M59.75,4.41c-.78.56-3.67,1.21-3.67,1.21-.53.18-1.12.07-1.53-.31-1.65-1.52-2.19-2.87-.96-4.99.58-.99,9.66,1.57,6.16,4.09Z"/>
  <path class="cls-1" d="M89.7,66.89c.85.51,1.59,2.4.12,3.08-2.46,1.12-4.42-.92-4.18-3.47.02-.16.16-.27.32-.25,1.14.14,2.97.18,3.74.64Z"/>
  <path class="cls-1" d="M98.84,72.61c-1.85,1.71-3.73.64-4.36-1.37-.14-.44.14-.9.58-1.01l2.33-.61c.26-.07.53,0,.74.16.95.78,1.81,1.81.7,2.83Z"/>
</svg>