<?xml version="1.0" encoding="UTF-8"?>
<svg id="Livello_1" data-name="Livello 1" xmlns="http://www.w3.org/2000/svg" viewBox="0 0 104.49 144.68">
  <defs>
    <style>
      .cls-1 {
        fill: #231f20;
      }

      .cls-2 {
        fill: #cbdb87;
      }
    </style>
  </defs>
  <path class="cls-1" d="M.02,41.4v1.08c-.01-.17-.01-.35-.01-.52,0-.19,0-.38.01-.56Z"/>
  <path class="cls-1" d="M.02,101.6v1.65c0-.36-.01-.73-.01-1.09,0-.19,0-.38.01-.56Z"/>
  <path class="cls-1" d="M.03,40.83c-.01.18-.01.37-.01.56v-.56h.01Z"/>
  <path class="cls-1" d="M.06,104.32H.02v-1.08c.01.36.02.72.04,1.08Z"/>
  <path class="cls-2" d="M9.51,72.36c0,39.81,33.8,72.07,75.5,72.07,6.06,0,10.58-5.14,10.03-10.31-.5-4.52-4.78-8.32-10.03-8.25-13.27-2-23.42-13.19-23.42-26.67,0-7.44,3.09-14.19,8.11-19.07,5.01-4.89,11.93-7.91,19.58-7.91-15.29,0-27.69-12.08-27.69-26.98,0-13.24,9.77-24.24,22.65-26.55,6.06.02,10.58-5.09,10.03-10.22-.48-4.4-4.64-8.13-9.77-8.18C43.03.56,9.51,32.72,9.51,72.36Z"/>
</svg>