<?xml version="1.0" encoding="UTF-8"?>
<svg id="Livello_1" data-name="Livello 1" xmlns="http://www.w3.org/2000/svg" viewBox="0 0 152.99 144.84">
  <defs>
    <style>
      .cls-1 {
        fill: #231f20;
      }
    </style>
  </defs>
  <path class="cls-1" d="M108.96,8.75c-.17-.51-.37-1.02-.61-1.5-.84-1.83-2.11-3.39-3.66-4.58-.11-.09-.2-.16-.31-.24C102.25.89,99.69,0,96.94,0h-18.34s.11,22.28.24,26.09c.06,1.5.2,3,.42,4.49l.17.52.55,1.69,15.78,49.91.21.67c.16.52.41,1,.74,1.43.62.81,1.34,1.71,1.82,2.22,2.6,2.79,4.16,4.5,4.16,4.5l-2.98,2.98s-1.71-1.56-4.5-4.16c-.29-.27-.71-.62-1.16-.98-.81-.65-1.82-1.01-2.86-1.01h-29.39c-1.04,0-2.05.36-2.86,1.01-.45.36-.87.71-1.16.98-2.79,2.6-4.5,4.16-4.5,4.16l-2.97-2.98s1.55-1.71,4.15-4.5c.49-.51,1.21-1.42,1.84-2.24.32-.41.56-.88.72-1.39l.22-.68,15.78-49.92.54-1.69.17-.52c.22-1.49.37-2.99.42-4.49.13-3.81.24-26.09.24-26.09h-18.34c-2.75,0-5.31.88-7.43,2.42-.11.08-.21.15-.32.24-1.55,1.19-2.82,2.75-3.66,4.58-.24.48-.44.99-.6,1.5L0,144.84h37.44l6.96-21.34.46-1.4c.49-1.5.16-3.16-.87-4.36-.16-.19-.3-.35-.43-.49-2.6-2.79-4.15-4.5-4.15-4.5l2.97-2.98s1.71,1.56,4.5,4.16c.58.54,1.65,1.38,2.54,2.05.79.61,1.76.94,2.75.94h48.66c.99,0,1.96-.33,2.75-.94.89-.67,1.96-1.51,2.54-2.05,2.79-2.6,4.5-4.16,4.5-4.16l2.98,2.98s-1.56,1.71-4.16,4.5c-.13.14-.28.3-.43.49-1.03,1.2-1.36,2.85-.87,4.36l.45,1.39,6.96,21.35h37.44L108.96,8.75Z"/>
</svg>