<?xml version="1.0" encoding="UTF-8"?>
<svg id="Livello_1" data-name="Livello 1" xmlns="http://www.w3.org/2000/svg" viewBox="0 0 104.49 144.68">
  <defs>
    <style>
      .cls-1 {
        fill: #231f20;
      }
    </style>
  </defs>
  <path class="cls-1" d="M.02,41.4v1.08c-.01-.17-.01-.35-.01-.52,0-.19,0-.38.01-.56Z"/>
  <path class="cls-1" d="M.02,101.6v1.65c0-.36-.01-.73-.01-1.09,0-.19,0-.38.01-.56Z"/>
  <path class="cls-1" d="M30.47,21.97l-2.98,2.98s1.56,1.71,4.16,4.5c.55.58,1.39,1.65,2.06,2.54.6.79.93,1.75.93,2.75v17.86c0,2.46,1.99,4.46,4.46,4.46h58.35v29.17h-58.35c-2.46,0-4.46,1.99-4.46,4.46v19.94c0,1-.33,1.97-.93,2.76s-1.33,1.69-1.81,2.2c-2.6,2.79-4.16,4.5-4.16,4.5l2.98,2.98s1.71-1.56,4.5-4.16c.5-.47,1.61-1.34,2.67-2.14.79-.61,1.76-.94,2.76-.94h63.84v29.17H11.86c-6.55,0-11.85-5.58-11.85-12.47v-28.19h.05c-.02-.36-.03-.72-.04-1.08v-1.65c.07-5.86,1.38-11.35,3.93-16.51,2.61-5.3,6.27-9.89,10.96-13.75-4.28-3.73-8.35-8.17-10.96-13.35C1.4,52.99.09,47.83.02,42.49v-1.08c0-.19,0-.38.01-.56H.01V12.64C.01,5.76,5.31.17,11.86.17h92.63v28.96H40.25c-1.01,0-1.99-.34-2.78-.95-.96-.75-1.99-1.56-2.5-2.04-2.79-2.6-4.5-4.16-4.5-4.16Z"/>
  <path class="cls-1" d="M.03,40.83c-.01.18-.01.37-.01.56v-.56h.01Z"/>
  <path class="cls-1" d="M.06,104.32H.02v-1.08c.01.36.02.72.04,1.08Z"/>
</svg>