<svg id="Livello_1" data-name="Livello 1" xmlns="http://www.w3.org/2000/svg" viewBox="0 0 104.48 144.5"><defs><style>.cls-1{fill:#231f20;}.cls-2{fill:#fff100;}</style></defs><path class="cls-1" d="M0,41.22V42.3c0-.17,0-.35,0-.52S0,41.4,0,41.22Z"/><path class="cls-1" d="M30.46,21.8l-3,3s1.56,1.71,4.16,4.5c.55.57,1.39,1.65,2.06,2.53a4.5,4.5,0,0,1,.93,2.75V52.42a4.46,4.46,0,0,0,4.46,4.46H97.44V86.05H39.09a4.45,4.45,0,0,0-4.46,4.45v19.94a4.57,4.57,0,0,1-.93,2.76c-.62.81-1.33,1.69-1.81,2.2-2.6,2.79-4.16,4.5-4.16,4.5l3,3s1.71-1.56,4.5-4.16c.5-.47,1.61-1.34,2.67-2.15a4.57,4.57,0,0,1,2.76-.93h63.84v29.17H11.85C5.3,144.82,0,139.23,0,132.34V104.15H.05c0-.36,0-.72,0-1.08v-1.65A37.77,37.77,0,0,1,3.94,84.91a41.3,41.3,0,0,1,11-13.75,45.4,45.4,0,0,1-11-13.35A34.8,34.8,0,0,1,0,42.3V41.22c0-.19,0-.38,0-.56H0V12.47C0,5.58,5.3,0,11.85,0h92.63V29H40.24a4.53,4.53,0,0,1-2.78-1c-1-.74-2-1.56-2.5-2C32.17,23.36,30.46,21.8,30.46,21.8Z"/><path class="cls-2" d="M0,40.66c0,.18,0,.37,0,.56v-.56Z"/></svg>