<svg id="Livello_1" data-name="Livello 1" xmlns="http://www.w3.org/2000/svg" viewBox="0 0 234.41 144.5"><defs><style>.cls-1{fill:#231f20;}</style></defs><path class="cls-1" d="M234.42,21.21v123H199.77l0-68.21s-14-40.18-14.41-44.15c-.26-2.76-.39-9.43-.39-9.43h-4.41s-.11,6.67-.37,9.43c-.4,4-14.31,44.15-14.31,44.15l-.1,22.09A46.13,46.13,0,0,1,159,120.91,47.79,47.79,0,0,1,140.24,138a61.68,61.68,0,0,1-8.77,3.46,61.52,61.52,0,0,1-14.26,2.17A61.52,61.52,0,0,1,103,141.48,61.68,61.68,0,0,1,94.18,138a47.79,47.79,0,0,1-18.72-17.11,46.13,46.13,0,0,1-6.84-22.85L68.52,76S54.61,35.79,54.21,31.82c-.26-2.76-.37-9.43-.37-9.43H49.43s-.13,6.67-.39,9.43C48.66,35.79,34.63,76,34.63,76l0,68.21H0v-123C0,9.48,9.78,0,21.82,0H81.13C93.17,0,103,9.48,103,21.21V78.83s10.67,32,11.69,37.83c.47,2.72.37,11.43.37,11.43h4.41s-.1-8.71.37-11.43c1-5.88,11.68-37.83,11.68-37.83V21.21C131.47,9.48,141.25,0,153.29,0H212.6C224.64,0,234.42,9.48,234.42,21.21Z"/></svg>