<?xml version="1.0" encoding="UTF-8"?>
<svg id="Livello_1" data-name="Livello 1" xmlns="http://www.w3.org/2000/svg" viewBox="0 0 234.41 144.84">
  <defs>
    <style>
      .cls-1 {
        fill: #231f20;
      }
    </style>
  </defs>
  <path class="cls-1" d="M234.41,21.55v122.97h-34.65l.02-68.21s-14.03-40.18-14.41-44.15c-.26-2.76-.39-9.43-.39-9.43h-4.41s-.11,6.67-.37,9.43c-.4,3.97-14.31,44.15-14.31,44.15l-.1,22.09c-.42,8.67-2.69,16.29-6.84,22.85-4.6,7.29-10.84,13.01-18.72,17.11-1.76.93-5.07,2.27-8.77,3.46-4.12,1.33-10.58,2.05-14.26,2.17-3.68-.12-10.14-.84-14.26-2.17-3.7-1.19-7.01-2.53-8.77-3.46-7.88-4.1-14.12-9.82-18.72-17.11-4.15-6.56-6.42-14.18-6.84-22.85l-.1-22.09s-13.91-40.18-14.31-44.15c-.26-2.76-.37-9.43-.37-9.43h-4.41s-.13,6.67-.39,9.43c-.38,3.97-14.41,44.15-14.41,44.15l.02,68.21H0V21.55C-.01,9.82,9.77.34,21.81.34h59.31c12.04,0,21.82,9.48,21.82,21.21v57.62s10.67,31.95,11.69,37.83c.47,2.72.37,11.43.37,11.43h4.41s-.1-8.71.37-11.43c1.02-5.88,11.68-37.83,11.68-37.83V21.55c0-11.73,9.78-21.21,21.82-21.21h59.31c12.04,0,21.82,9.48,21.82,21.21Z"/>
</svg>