<?xml version="1.0" encoding="UTF-8"?>
<svg id="Livello_1" data-name="Livello 1" xmlns="http://www.w3.org/2000/svg" viewBox="0 0 120.41 144.84">
  <defs>
    <style>
      .cls-1 {
        fill: #231f20;
      }
    </style>
  </defs>
  <path class="cls-1" d="M112.83,116.07c-1.52,0-2.74-.26-3.63-.83-.88-.56-1.69-1.3-2.38-2.27l-11.58-19.65c7.3-4.41,13.14-10.35,17.48-17.8,4.35-7.44,6.51-15.71,6.51-24.82,0-10.06-2.42-18.88-7.23-26.47-4.82-7.6-11.24-13.51-19.24-17.79C84.76,2.15,75.86.03,66.08.03H17.15C14.59.03,12.17.58,9.99,1.58l20.47,20.47s1.71,1.55,4.5,4.15c.1.1,1.49,1.19,2.55,2.03.79.62,1.76.96,2.77.96h21.86c4,0,7.7.83,11.07,2.48,3.37,1.66,6.11,4.1,8.17,7.35,2.07,3.25,3.1,7.14,3.1,11.68s-.99,8.28-3,11.59c-2,3.3-4.69,5.83-8.06,7.55-3.38,1.72-7.13,2.58-11.28,2.58h-21.9c-.99,0-1.96.33-2.75.93-.88.68-1.95,1.52-2.53,2.06-2.79,2.6-4.5,4.16-4.5,4.16l-2.98-2.98s1.56-1.71,4.16-4.5c.55-.58,1.39-1.66,2.07-2.54.6-.79.92-1.75.92-2.74v-31.96c0-1.02-.34-2-.97-2.8-.81-1.04-1.86-2.35-2.02-2.53-2.6-2.78-4.16-4.5-4.16-4.5L6.32,3.86C2.39,7.02-.12,11.86-.12,17.3v127.53h34.75v-38.13c0-.99-.32-1.95-.92-2.74-.68-.89-1.52-1.96-2.07-2.54-2.6-2.79-4.16-4.5-4.16-4.5l2.98-2.98s1.71,1.56,4.5,4.16c.58.54,1.65,1.38,2.53,2.05.79.61,1.76.94,2.76.94h20.65l5.07,9.08,10.44,18.52c2.91,4.82,6.89,8.73,12.01,11.69,5.11,2.95,10.76,4.45,16.96,4.45h15.03v-28.75h-7.58,0Z"/>
</svg>