<svg id="Livello_1" data-name="Livello 1" xmlns="http://www.w3.org/2000/svg" viewBox="0 0 120.53 144.52"><defs><style>.cls-1{fill:#231f20;}</style></defs><path class="cls-1" d="M113,115.76a6.71,6.71,0,0,1-3.63-.83,8.5,8.5,0,0,1-2.38-2.27L95.36,93a49.7,49.7,0,0,0,17.48-17.8,48.25,48.25,0,0,0,6.51-24.82q0-15.09-7.23-26.47A50.66,50.66,0,0,0,92.88,6.13,55.55,55.55,0,0,0,66.2-.28H17.27A17.27,17.27,0,0,0,0,17V144.52H34.75V106.39a4.52,4.52,0,0,0-.92-2.74c-.68-.89-1.52-2-2.07-2.54-2.6-2.79-4.16-4.5-4.16-4.5l3-3s1.71,1.56,4.5,4.16c.58.54,1.65,1.38,2.53,2a4.51,4.51,0,0,0,2.76.94H61l5.07,9.08,10.44,18.52a33.65,33.65,0,0,0,29,16.14h15V115.77ZM81.6,62a19.85,19.85,0,0,1-8.06,7.55,24.48,24.48,0,0,1-11.28,2.58H40.36a4.51,4.51,0,0,0-2.75.94c-.88.67-2,1.51-2.53,2-2.79,2.6-4.5,4.16-4.5,4.16l-3-3s1.56-1.71,4.16-4.5c.55-.58,1.39-1.65,2.07-2.54a4.52,4.52,0,0,0,.92-2.74v-32a4.51,4.51,0,0,0-1-2.8c-.81-1-1.86-2.35-2-2.53-2.6-2.78-4.16-4.5-4.16-4.5l3-3s1.71,1.55,4.5,4.15c.1.1,1.49,1.2,2.55,2a4.48,4.48,0,0,0,2.77,1H62.26a24.87,24.87,0,0,1,11.07,2.48,19.94,19.94,0,0,1,8.17,7.35,21.27,21.27,0,0,1,3.1,11.68A21.9,21.9,0,0,1,81.6,62Z"/></svg>