<svg id="Livello_1" data-name="Livello 1" xmlns="http://www.w3.org/2000/svg" viewBox="0 0 116.58 144.83"><defs><style>.cls-1{fill:#231f20;}</style></defs><path class="cls-1" d="M62.5,30V34.2s2.31.11,6.12.24c.87,0,2.4.22,3.55.38a1.69,1.69,0,0,1,1.46,1.68v67.35a11.26,11.26,0,0,0,3.52,8.39,11.5,11.5,0,0,0,8.28,3.41h31.15v29.18H83.76a45.13,45.13,0,0,1-23.26-5.9A42.1,42.1,0,0,1,44.87,123.1a45,45,0,0,1-5.58-22.35V36.5a1.69,1.69,0,0,1,1.46-1.68c1.15-.16,2.68-.35,3.55-.38,3.81-.13,6.12-.24,6.12-.24V30s-2.31-.11-6.12-.24c-1.5-.06-5-.59-5-.59H0V0H116.58V29.16H73.63s-3.51.53-5,.59C64.81,29.88,62.5,30,62.5,30Z"/></svg>