<svg id="Livello_1" data-name="Livello 1" xmlns="http://www.w3.org/2000/svg" viewBox="0 0 146.67 138.85"><defs><style>.cls-1{fill:#231f20;}.cls-2{fill:none;}</style></defs><path class="cls-1" d="M104.46,8.39A12.08,12.08,0,0,0,103.87,7a11.62,11.62,0,0,0-3.51-4.39c-.1-.09-.19-.15-.29-.23A12.11,12.11,0,0,0,92.93,0H53.73a12,12,0,0,0-7.12,2.32l-.31.23A11.69,11.69,0,0,0,42.8,7a9.42,9.42,0,0,0-.58,1.44L0,138.86H35.89l6.68-20.46.43-1.34a4.34,4.34,0,0,0-.83-4.19l-.41-.46c-2.49-2.68-4-4.32-4-4.32l2.85-2.86s1.64,1.5,4.31,4c.56.52,1.59,1.32,2.43,2a4.37,4.37,0,0,0,2.65.9H96.66a4.34,4.34,0,0,0,2.64-.9c.85-.65,1.88-1.45,2.43-2,2.68-2.49,4.32-4,4.32-4l2.86,2.86s-1.5,1.64-4,4.32c-.13.13-.27.29-.42.46a4.38,4.38,0,0,0-.83,4.18l.43,1.34,6.68,20.47h35.89ZM70,31.45l.52-1.63.16-.49A39,39,0,0,0,71.09,25c.12-3.65.23-7.78.23-7.78h4s.11,4.13.23,7.78a41.59,41.59,0,0,0,.4,4.31l.17.49.52,1.63L91.8,79.29l.2.65a4.65,4.65,0,0,0,.71,1.36c.6.78,1.28,1.65,1.75,2.13,2.49,2.68,4,4.32,4,4.32L95.59,90.6s-1.64-1.49-4.31-4c-.28-.26-.68-.59-1.12-.94a4.32,4.32,0,0,0-2.74-1H59.24a4.37,4.37,0,0,0-2.74,1c-.43.35-.83.68-1.11.94-2.67,2.49-4.31,4-4.31,4l-2.85-2.85s1.49-1.64,4-4.32c.47-.49,1.16-1.36,1.76-2.14A4.22,4.22,0,0,0,54.66,80l.21-.66Z"/><path class="cls-1" d="M42.72,51v.05h0v0Zm0,0v.05h0v0Zm0,0v.05h0v0Zm0,0v.05h0v0Zm0,0v.05h0v0Zm0,0v.05h0v0Zm0,0v.05h0v0Zm0,0v.05h0v0Zm0,0v.05h0v0Zm0,0v.05h0v0Zm0,0v.05h0v0Zm0,0v.05h0v0Z"/><polyline class="cls-2" points="42.73 51.08 42.73 51.09 42.73 51.03 42.73 51.05"/></svg>