<?xml version="1.0" encoding="UTF-8"?>
<svg id="Livello_1" data-name="Livello 1" xmlns="http://www.w3.org/2000/svg" viewBox="0 0 146.66 138.83">
  <defs>
    <style>
      .cls-1 {
        fill: #231f20;
      }
    </style>
  </defs>
  <path class="cls-1" d="M104.45,8.38c-.16-.49-.35-.97-.58-1.43-.81-1.76-2.02-3.25-3.51-4.4-.11-.08-.19-.15-.3-.23C98.02.85,95.57,0,92.93,0h-17.58s.1,21.36.23,25.02c.06,1.43.19,2.87.4,4.3l.16.5.53,1.62,15.13,47.85.2.64c.15.5.39.96.71,1.37.6.78,1.28,1.64,1.74,2.13,2.5,2.67,3.99,4.31,3.99,4.31l-2.85,2.86s-1.64-1.5-4.32-3.99c-.28-.26-.68-.59-1.11-.94-.78-.62-1.74-.97-2.74-.97h-28.18c-1,0-1.96.35-2.74.97-.43.35-.83.68-1.11.94-2.68,2.49-4.32,3.99-4.32,3.99l-2.84-2.86s1.48-1.64,3.98-4.31c.46-.49,1.15-1.36,1.76-2.15.3-.4.54-.85.69-1.33l.21-.65,15.13-47.86.52-1.62.16-.5c.21-1.43.35-2.87.4-4.3C71.1,24.45,71.14,0,71.14,0h-17.41C51.09,0,48.64.85,46.61,2.32c-.11.08-.2.15-.31.23-1.49,1.15-2.7,2.64-3.51,4.4-.23.46-.42.94-.57,1.43L0,138.85h35.89l6.67-20.46.44-1.34c.47-1.44.15-3.03-.83-4.18-.15-.18-.29-.34-.41-.47-2.5-2.68-3.98-4.31-3.98-4.31l2.85-2.86s1.63,1.49,4.31,3.99c.56.51,1.58,1.32,2.43,1.97.76.58,1.69.89,2.64.89h46.65c.95,0,1.88-.31,2.64-.89.85-.65,1.87-1.46,2.43-1.97,2.68-2.5,4.32-3.99,4.32-3.99l2.85,2.86s-1.49,1.63-3.99,4.31c-.12.13-.26.29-.41.47-.98,1.15-1.31,2.74-.84,4.18l.44,1.33,6.67,20.47h35.89L104.45,8.38h0Z"/>
</svg>