<svg id="Livello_1" data-name="Livello 1" xmlns="http://www.w3.org/2000/svg" viewBox="0 0 110.47 138.85"><defs><style>.cls-1{fill:#231f20;}.cls-2{fill:none;}</style></defs><path class="cls-1" d="M107.52,86.69a40.52,40.52,0,0,0-8-12A32.19,32.19,0,0,0,88,66.86a33.78,33.78,0,0,0,9.7-7.34A37,37,0,0,0,104.49,49a31.31,31.31,0,0,0,2.56-12.5,36.45,36.45,0,0,0-4.94-19.24,35.35,35.35,0,0,0-13-12.7A35.85,35.85,0,0,0,71.14,0h-61A10.39,10.39,0,0,0,0,10.62V138.86H73.23A37.92,37.92,0,0,0,92,134.2,35.45,35.45,0,0,0,105.43,121a38,38,0,0,0,5-19.64A36.35,36.35,0,0,0,107.52,86.69ZM68.58,29.76a13.08,13.08,0,0,1,4.65,4.86,14.33,14.33,0,0,1,1.7,7,14.18,14.18,0,0,1-1.7,6.75,14,14,0,0,1-4.75,5.15,11.82,11.82,0,0,1-6.65,2H37.6a4.59,4.59,0,0,0-2.85,1c-1.24,1-2.89,2.36-3,2.47-2.49,2.32-4,3.69-4,3.69l-3-3s1.56-1.71,4.16-4.5c.54-.59,1.39-1.67,2.07-2.55a4.56,4.56,0,0,0,.93-2.75L32,33.65a4.57,4.57,0,0,0-1-2.82c-.85-1.07-1.94-2.46-2-2.52-2.6-2.79-4.16-4.5-4.16-4.5l3-3s1.71,1.56,4.49,4.16c.44.4,1.61,1.32,2.53,2a4.6,4.6,0,0,0,2.78.95H61.83A12.77,12.77,0,0,1,68.58,29.76Zm8.55,74.18a14.2,14.2,0,0,1-4.85,5.36,12.86,12.86,0,0,1-7.22,2H37.58a4.55,4.55,0,0,0-2.79.95c-.94.74-2.09,1.63-2.13,1.68s-4.91,4.51-4.91,4.51l-3-3s1.56-1.71,4.16-4.49c.16-.18,1.21-1.5,2-2.53a4.54,4.54,0,0,0,1-2.81v-18a4.54,4.54,0,0,0-1-2.81c-.84-1.06-1.92-2.42-2-2.52-2.6-2.78-4.16-4.49-4.16-4.49l3-3,4.5,4.16c.58.54,1.66,1.38,2.55,2.06a4.56,4.56,0,0,0,2.75.93H65.06a13,13,0,0,1,12.07,7.14,15.75,15.75,0,0,1,1.79,7.54A15.32,15.32,0,0,1,77.13,103.94Z"/><path class="cls-1" d="M31.92,51v.05h0v0Zm0,0v.05h0v0Zm0,0v.05h0v0Zm0,0v.05h0v0Zm0,0v.05h0v0Zm0,0v.05h0v0Zm0,0v.05h0v0Zm0,0v.05h0v0Zm0,0v.05h0v0Zm0,0v.05h0v0Zm0,0v.05h0v0Zm0,0v.05h0v0Z"/><polyline class="cls-2" points="31.93 51.08 31.92 51.09 31.92 51.03 31.93 51.05"/></svg>