<?xml version="1.0" encoding="UTF-8"?>
<svg id="Livello_1" data-name="Livello 1" xmlns="http://www.w3.org/2000/svg" viewBox="0 0 110.47 138.85">
  <defs>
    <style>
      .cls-1 {
        fill: #231f20;
      }
    </style>
  </defs>
  <path class="cls-1" d="M31.92,50.99v.05h.01v-.04h-.01ZM107.52,86.64c-1.95-4.5-4.62-8.49-7.98-12-3.36-3.52-7.18-6.11-11.5-7.83,3.68-1.85,6.9-4.31,9.7-7.34,2.8-3.04,5.04-6.55,6.75-10.51,1.71-3.98,2.56-8.14,2.56-12.5,0-7.4-1.66-13.83-4.94-19.24-3.28-5.42-7.64-9.67-13.01-12.7C83.72,1.49,77.74-.04,71.14-.04H10.16c-.96,0-1.89.14-2.77.4l20.53,20.53c.4.36,2,1.81,4.39,4.05.44.4,1.61,1.33,2.53,2.04.8.62,1.78.95,2.78.95h24.21c2.53,0,4.79.59,6.75,1.78,1.95,1.19,3.51,2.82,4.65,4.86,1.13,2.04,1.7,4.4,1.7,7.04,0,2.38-.57,4.62-1.7,6.75-1.14,2.12-2.72,3.82-4.75,5.15-2.04,1.34-4.24,1.99-6.65,1.99h-24.23c-1.04,0-2.04.35-2.85,1-1.24,1-2.89,2.35-3,2.46-2.49,2.32-4,3.69-4,3.69l-2.98-2.98s1.56-1.71,4.16-4.5c.54-.58,1.39-1.66,2.07-2.55.6-.79.93-1.75.93-2.75l.05-16.27c0-1.02-.34-2.01-.97-2.81-.85-1.08-1.94-2.46-2.01-2.53-2.22-2.38-3.68-3.97-4.06-4.39l-.03-.03L3.57,2.5C1.38,4.44,0,7.34,0,10.57v128.24H0l24.77-23.41.09-.09c.35-.39,1.82-1.99,4.07-4.4.16-.18,1.21-1.49,2.02-2.53.63-.8.97-1.78.97-2.8v-18.04c0-1.02-.34-2.01-.97-2.81-.84-1.06-1.92-2.42-2.02-2.53-2.6-2.78-4.16-4.49-4.16-4.49l2.98-2.98s4.33,4,4.5,4.16c.58.54,1.66,1.39,2.55,2.06.79.6,1.76.93,2.75.93h27.51c2.79,0,5.19.63,7.22,1.88,2.04,1.25,3.65,3.02,4.85,5.26,1.2,2.25,1.79,4.76,1.79,7.54,0,2.63-.59,5.09-1.79,7.33-1.2,2.25-2.81,4.04-4.85,5.36-2.03,1.33-4.43,1.99-7.22,1.99h-27.48c-1.01,0-1.99.34-2.79.96-.94.73-2.09,1.63-2.13,1.67-.14.11-4.17,3.83-4.82,4.42l.02.02-21.71,20.5h67.08c6.97,0,13.24-1.55,18.81-4.66,5.57-3.12,10.03-7.5,13.39-13.19,3.36-5.7,5.04-12.25,5.04-19.64,0-5.29-.99-10.18-2.95-14.68h0ZM31.92,50.99v.05h.01v-.04h-.01Z"/>
  <path class="cls-1" d="M31.92,51.03v.05h.01v-.04h-.01ZM31.92,51.03v.05h.01v-.04h-.01ZM31.92,51.03v.05h.01v-.04h-.01ZM31.92,51.03v.05h.01v-.04h-.01ZM31.92,51.03v.05h.01v-.04h-.01ZM31.92,51.03v.05h.01v-.04h-.01ZM31.92,51.03v.05h.01v-.04h-.01ZM31.92,51.03v.05h.01v-.04h-.01ZM31.92,51.03v.05h.01v-.04h-.01ZM31.92,51.03v.05h.01v-.04h-.01ZM31.92,51.03v.05h.01v-.04h-.01ZM31.92,51.03v.05h.01v-.04h-.01Z"/>
  <polyline class="cls-1" points="31.93 51.07 31.92 51.08 31.92 51.03 31.93 51.04"/>
</svg>