<?xml version="1.0" encoding="UTF-8"?>
<svg id="Livello_1" data-name="Livello 1" xmlns="http://www.w3.org/2000/svg" viewBox="0 0 104.49 138.83">
  <defs>
    <style>
      .cls-1 {
        fill: #231f20;
      }
    </style>
  </defs>
  <path class="cls-1" d="M29.21,20.91l-2.86,2.86s1.5,1.64,3.99,4.31c.52.55,1.33,1.58,1.98,2.43.58.76.89,1.68.89,2.63v17.12c0,2.36,1.91,4.27,4.27,4.27h60.26v27.97h-60.26c-2.36,0-4.27,1.9-4.27,4.26v19.11c0,.96-.31,1.89-.9,2.65s-1.27,1.62-1.73,2.11c-2.49,2.67-3.99,4.31-3.99,4.31l2.86,2.86s1.64-1.5,4.31-3.99c.48-.45,1.55-1.28,2.56-2.06.76-.58,1.69-.9,2.65-.9h65.52v27.97H11.37C5.09,138.82.01,133.46.01,126.86v-27.03h.05c-.02-.35-.03-.69-.04-1.04v-1.58c.07-5.62,1.32-10.88,3.77-15.83,2.5-5.08,6.01-9.48,10.51-13.18-4.1-3.58-8.01-7.83-10.51-12.8C1.35,50.6.09,45.65.02,40.53v-1.58h-.02V11.92C0,5.31,5.08-.04,11.36-.04h93.12v27.77H38.58c-.97,0-1.9-.33-2.67-.92-.92-.72-1.91-1.5-2.4-1.95-2.67-2.49-4.31-3.99-4.31-3.99v.04Z"/>
</svg>