<?xml version="1.0" encoding="UTF-8"?>
<svg id="Livello_1" data-name="Livello 1" xmlns="http://www.w3.org/2000/svg" viewBox="0 0 137.25 138.85">
  <defs>
    <style>
      .cls-1 {
        fill: #231f20;
      }
    </style>
  </defs>
  <path class="cls-1" d="M137.25,128.61c0,5.66-4.36,10.24-9.74,10.24h-32.51c-20.65,0-39.4-17.62-39.4-39.35v-43.33h-.04v-.08s-6.13-20.18-7.67-30.8c-.13-.83-.23-1.57-.29-2.26-.2-2.34-.29-7.98-.29-7.98h-4.36s-.07,5.64-.29,7.98c-.06.67-.14,1.41-.28,2.2-1.49,10.11-7.19,28.94-7.74,30.72-.02.1-.04.14-.04.14v.08h.04v82.68H-.01L0,12.48C0,5.59,5.31,0,11.86,0h57.69c6.76,0,12.25,5.49,12.25,12.25v72.38h.02c.32,1.07,6.35,20.9,7.78,31.15h.02c.08.67.16,1.3.22,1.89.21,2.34.3,7.98.3,7.98h4.34s.09-5.64.29-7.98c.06-.63.15-1.3.25-2.03,1.49-10.28,7.41-29.94,7.73-31.01V0h34.49l.02,128.61h-.01Z"/>
</svg>