<svg id="Livello_1" data-name="Livello 1" xmlns="http://www.w3.org/2000/svg" viewBox="0 0 135.78 138.85"><defs><style>.cls-1{fill:#231f20;}.cls-2{fill:none;}</style></defs><path class="cls-1" d="M110.92,97.06v0h0v0Zm0,0v0h0v0Zm0,0v0h0v0Zm0,0v0h0v0Zm0,0v0h0v0Zm0,0v0h0v0Zm0,0v0h0v0Zm0,0v0h0v0Zm0,0v0h0v0Zm0,0v0h0v0Zm0,0v0h0v0Zm0,0v0h0v0Z"/><polyline class="cls-2" points="110.93 97.11 110.92 97.11 110.92 97.06 110.93 97.08"/><path class="cls-1" d="M136.26,128.61a10,10,0,0,1-9.74,10.24H94c-20.65,0-39.4-17.62-39.4-39.35V56.17h0v-.08s-6.13-20.18-7.67-30.8c-.13-.83-.23-1.57-.29-2.26-.2-2.34-.29-8-.29-8H42s-.07,5.64-.29,8c-.06.67-.14,1.41-.28,2.2C39.9,35.34,34.2,54.17,33.65,56a.63.63,0,0,1,0,.14v.08h0v82.68H-1L-1,12.49C-1,5.6,4.31,0,10.86,0H68.55A12.25,12.25,0,0,1,80.8,12.26V84.64h0c.32,1.07,6.35,20.9,7.78,31.15h0c.08.67.16,1.3.22,1.89.21,2.34.3,8,.3,8h4.34s.09-5.64.29-8c.06-.63.15-1.3.25-2,1.49-10.28,7.41-29.94,7.73-31V0h34.5Z"/><path class="cls-1" d="M31.91,51v.05h0v0Zm0,0v.05h0v0Zm0,0v.05h0v0Zm0,0v.05h0v0Zm0,0v.05h0v0Zm0,0v.05h0v0Zm0,0v.05h0v0Zm0,0v.05h0v0Zm0,0v.05h0v0Zm0,0v.05h0v0Zm0,0v.05h0v0Zm0,0v.05h0v0Z"/><polyline class="cls-2" points="31.92 51.08 31.91 51.09 31.91 51.03 31.92 51.05"/></svg>