<svg id="Livello_1" data-name="Livello 1" xmlns="http://www.w3.org/2000/svg" viewBox="0 0 116.59 138.85"><defs><style>.cls-1{fill:#231f20;}</style></defs><path class="cls-1" d="M58.2,138.85q-16.85,0-30-7.13A51.84,51.84,0,0,1,7.56,111.33Q0,98.09,0,79.74V0H32.33V81.78a31.32,31.32,0,0,0,3.23,14.07,25.42,25.42,0,0,0,9.11,10.29,24.88,24.88,0,0,0,13.72,3.77A24.43,24.43,0,0,0,72,106.14,25.81,25.81,0,0,0,81,96a31.11,31.11,0,0,0,3.23-14.17V0h32.33V79.74q0,18.35-7.45,31.59a51.28,51.28,0,0,1-20.57,20.39Q75.44,138.85,58.2,138.85Z"/></svg>