<?xml version="1.0" encoding="UTF-8"?>
<svg id="Livello_1" data-name="Livello 1" xmlns="http://www.w3.org/2000/svg" viewBox="0 0 116.56 138.46">
  <defs>
    <style>
      .cls-1 {
        fill: #231f20;
      }
    </style>
  </defs>
  <path class="cls-1" d="M58.2,138.46c-11.24,0-21.23-2.38-29.98-7.13s-15.64-11.55-20.67-20.38C2.53,102.12,0,91.59,0,79.36V-.38h32.31v81.78c0,5.03,1.09,9.72,3.25,14.06,2.15,4.35,5.19,7.78,9.11,10.29,3.92,2.52,8.49,3.77,13.71,3.77s9.76-1.25,13.62-3.77c3.85-2.51,6.86-5.91,9.01-10.19s3.23-9,3.23-14.16V-.38h32.31v79.74c.01,12.23-2.47,22.76-7.43,31.59-4.97,8.83-11.82,15.63-20.57,20.38s-18.88,7.13-30.37,7.13h0Z"/>
</svg>